<svg height="263.000000pt" preserveAspectRatio="xMidYMid meet" version="1.0" viewBox="0 0 388.000000 263.000000" width="388.000000pt" xmlns="http://www.w3.org/2000/svg">
<metadata>
Created by potrace 1.11, written by Peter Selinger 2001-2013
</metadata>
<g fill="#000000" stroke="none" transform="translate(0.000000,263.000000) scale(0.100000,-0.100000)">
<path d="M2954 2619 c-2 -3 -23 -9 -47 -12 -72 -10 -281 -117 -424 -218 -31 -21 -61 -39 -67 -39 -26 0 -249 -234 -282 -295 -6 -11 -25 -45 -42 -76 -40 -70 -66 -199 -58 -289 3 -36 6 -73 6 -82 0 -9 6 -23 14 -30 7 -8 21 -28 30 -45 17 -33 122 -131 178 -166 18 -12 102 -56 187 -99 115 -58 165 -78 195 -79 23 0 62 -4 89 -8 34 -6 52 -4 66 5 10 8 52 26 92 41 41 15 85 34 99 44 95 63 205 132 263 164 62 34 72 37 120 31 29 -4 63 -15 77 -26 24 -18 25 -22 23 -137 -2 -137 -32 -262 -86 -351 -63 -105 -267 -355 -299 -367 -9 -3 -43 -27 -75 -52 -84 -66 -232 -133 -293 -133 -27 0 -62 5 -77 12 -52 23 -213 158 -213 179 0 12 -49 74 -97 125 -18 18 -33 41 -33 51 0 10 -12 53 -26 95 -22 67 -29 78 -48 78 -32 0 -127 -34 -186 -66 -58 -32 -76 -70 -67 -145 l6 -49 -28 15 c-31 16 -86 86 -119 150 -29 59 -59 199 -81 380 -16 135 -17 173 -7 245 6 47 15 92 20 100 11 16 24 79 32 156 6 52 -8 97 -39 122 -7 6 -44 16 -80 21 -37 5 -86 20 -109 33 -39 21 -44 28 -55 83 -8 33 -17 69 -22 80 -5 11 -14 36 -20 55 -6 20 -27 59 -46 89 -19 29 -35 56 -35 59 0 4 -44 49 -97 100 -133 127 -318 231 -410 232 -17 0 -43 4 -58 10 -29 11 -150 -17 -220 -51 -90 -43 -186 -124 -258 -218 -23 -30 -52 -66 -64 -79 -54 -59 -161 -320 -203 -497 -6 -27 -16 -55 -21 -61 -16 -19 -29 -115 -33 -235 -2 -65 -9 -126 -15 -137 -17 -32 -13 -158 8 -284 11 -62 22 -136 25 -164 5 -49 42 -148 78 -209 9 -16 24 -43 31 -60 17 -37 114 -144 141 -156 33 -14 87 -48 103 -64 8 -8 20 -15 26 -15 7 0 49 -5 94 -10 177 -22 318 31 573 216 55 40 146 132 223 227 39 48 75 87 79 87 4 0 8 -8 8 -17 1 -10 9 -36 20 -58 11 -22 19 -47 20 -56 0 -8 25 -65 55 -125 69 -138 149 -231 222 -257 58 -21 130 -17 177 11 35 20 76 85 76 120 0 13 7 37 17 55 l16 32 19 -55 c21 -63 68 -160 78 -160 3 0 12 -16 19 -35 6 -19 25 -43 40 -54 16 -11 56 -48 91 -81 130 -128 323 -220 460 -220 53 0 190 28 221 45 14 8 46 21 72 30 114 39 396 237 444 312 10 16 52 68 93 117 41 48 90 109 109 135 19 25 41 52 48 60 31 30 118 222 147 321 27 93 31 123 34 261 2 126 0 165 -13 200 -9 24 -20 60 -24 79 -16 77 -153 212 -258 255 -88 35 -203 57 -244 45 -19 -6 -55 -10 -82 -10 -52 0 -159 -49 -292 -134 -38 -25 -111 -68 -162 -96 l-92 -51 -72 36 c-39 20 -102 57 -140 82 -60 40 -69 50 -69 76 0 61 133 206 285 311 138 95 211 133 272 141 51 7 53 6 86 -30 18 -20 40 -37 48 -39 8 -2 27 -6 42 -11 37 -10 194 47 223 82 29 34 26 113 -5 166 -13 20 -20 37 -15 37 4 0 -1 9 -10 19 -10 11 -19 26 -20 35 -2 15 -53 57 -91 75 -11 5 -29 18 -39 30 -11 11 -28 21 -38 21 -11 0 -28 5 -39 10 -21 12 -169 19 -175 9z m-2093 -423 c90 -39 249 -185 249 -229 0 -16 33 -80 56 -107 7 -8 17 -34 23 -57 7 -23 16 -45 21 -48 6 -3 10 -15 10 -26 0 -10 9 -28 20 -39 12 -12 29 -35 39 -53 13 -22 25 -31 40 -30 11 2 21 -3 21 -10 -1 -23 -125 -252 -180 -330 -120 -172 -178 -244 -261 -326 -101 -100 -209 -166 -288 -177 -45 -6 -55 -3 -84 19 -52 39 -84 116 -107 256 -32 189 -17 391 50 665 51 209 164 410 269 478 51 32 74 34 122 14z"/>
</g>
</svg>