<svg version="1.1" viewBox="0.0 0.0 226.77165354330708 151.1811023622047" fill="none" stroke="none" stroke-linecap="square" stroke-miterlimit="10" xmlns:xlink="http://www.w3.org/1999/xlink" xmlns="http://www.w3.org/2000/svg"><clipPath id="p.0"><path d="m0 0l226.77165 0l0 151.1811l-226.77165 0l0 -151.1811z" clip-rule="nonzero"/></clipPath><g clip-path="url(#p.0)"><path fill="#000000" fill-opacity="0.0" d="m0 0l226.77165 0l0 151.1811l-226.77165 0z" fill-rule="evenodd"/><path fill="#cfe2f3" d="m43.5444 3.9398165l0 0c0 -1.7946382 1.4548416 -3.2494798 3.2494812 -3.2494798l57.55598 0c0.8618164 0 1.6883316 0.34235495 2.2977295 0.9517506c0.6093979 0.6093956 0.9517517 1.4359134 0.9517517 2.297729l0 12.997529c0 1.7946377 -1.4548416 3.2494793 -3.2494812 3.2494793l-57.55598 0c-1.7946396 0 -3.2494812 -1.4548416 -3.2494812 -3.2494793z" fill-rule="evenodd"/><path stroke="#000000" stroke-width="1.0" stroke-linejoin="round" stroke-linecap="butt" d="m43.5444 3.9398165l0 0c0 -1.7946382 1.4548416 -3.2494798 3.2494812 -3.2494798l57.55598 0c0.8618164 0 1.6883316 0.34235495 2.2977295 0.9517506c0.6093979 0.6093956 0.9517517 1.4359134 0.9517517 2.297729l0 12.997529c0 1.7946377 -1.4548416 3.2494793 -3.2494812 3.2494793l-57.55598 0c-1.7946396 0 -3.2494812 -1.4548416 -3.2494812 -3.2494793z" fill-rule="evenodd"/><path fill="#000000" fill-opacity="0.0" d="m43.5444 0.69033676l64.05495 0l0 19.496489l-64.05495 0z" fill-rule="evenodd"/><path fill="#000000" d="m65.883766 12.558581l0 -3.8125l1.15625 0l0.6875 2.59375l0.6875 -2.59375l1.15625 0l0 3.8125l-0.71875 0l0 -3.0l-0.75 3.0l-0.75 0l-0.75 -3.0l0 3.0l-0.71875 0zm6.2664948 0l0 -0.40625q-0.15625 0.21875 -0.40625 0.34375q-0.234375 0.125 -0.515625 0.125q-0.28125 0 -0.5 -0.125q-0.21875 -0.125 -0.328125 -0.34375q-0.09375 -0.21875 -0.09375 -0.609375l0 -1.75l0.734375 0l0 1.265625q0 0.59375 0.03125 0.734375q0.046875 0.125 0.15625 0.203125q0.109375 0.0625 0.28125 0.0625q0.1875 0 0.328125 -0.09375q0.15625 -0.109375 0.203125 -0.25q0.0625 -0.15625 0.0625 -0.75l0 -1.171875l0.71875 0l0 2.765625l-0.671875 0zm1.4265137 0l0 -3.8125l0.734375 0l0 3.8125l-0.734375 0zm2.761589 -2.765625l0 0.578125l-0.5 0l0 1.125q0 0.328125 0 0.390625q0.015625 0.0625 0.0625 0.09375q0.0625 0.03125 0.140625 0.03125q0.09375 0 0.28125 -0.0625l0.0625 0.5625q-0.25 0.109375 -0.578125 0.109375q-0.1875 0 -0.35938263 -0.0625q-0.15625 -0.0625 -0.234375 -0.171875q-0.0625 -0.109375 -0.09375 -0.28125q-0.015625 -0.140625 -0.015625 -0.515625l0 -1.21875l-0.34375 0l0 -0.578125l0.34375 0l0 -0.546875l0.7343826 -0.421875l0 0.96875l0.5 0zm0.49305725 -0.375l0 -0.671875l0.734375 0l0 0.671875l-0.734375 0zm0 3.140625l0 -2.765625l0.734375 0l0 2.765625l-0.734375 0zm1.4647064 -2.765625l0.6875 0l0 0.40625q0.125 -0.203125 0.34375 -0.328125q0.234375 -0.140625 0.515625 -0.140625q0.484375 0 0.8125 0.375q0.34375 0.375 0.34375 1.0625q0 0.6875 -0.34375 1.078125q-0.34375 0.375 -0.8125 0.375q-0.234375 0 -0.421875 -0.09375q-0.1875 -0.09375 -0.390625 -0.3125l0 1.390625l-0.734375 0l0 -3.8125zm0.71875 1.34375q0 0.453125 0.1875 0.6875q0.1875 0.21875 0.453125 0.21875q0.25 0 0.421875 -0.203125q0.171875 -0.203125 0.171875 -0.671875q0 -0.4375 -0.171875 -0.640625q-0.171875 -0.21875 -0.4375 -0.21875q-0.265625 0 -0.453125 0.21875q-0.171875 0.203125 -0.171875 0.609375zm2.5515137 1.421875l0 -3.8125l0.734375 0l0 3.8125l-0.734375 0zm1.1365814 -2.765625l0.78125 0l0.65625 1.96875l0.65625 -1.96875l0.75 0l-0.96875 2.65625l-0.171875 0.484375q-0.109375 0.25 -0.203125 0.375q-0.078125 0.125 -0.1875 0.203125q-0.109375 0.078125 -0.28125 0.125q-0.15625 0.046875 -0.375 0.046875q-0.203125 0 -0.40625 -0.046875l-0.0625 -0.578125q0.171875 0.03125 0.296875 0.03125q0.265625 0 0.375 -0.15625q0.125 -0.140625 0.203125 -0.375l-1.0625 -2.765625z" fill-rule="nonzero"/><path fill="#000000" fill-opacity="0.0" d="m75.24209 20.168777l-39.1389 23.433578" fill-rule="evenodd"/><path stroke="#000000" stroke-width="1.0" stroke-linejoin="round" stroke-linecap="butt" d="m75.24209 20.168777l-39.1389 23.433578" fill-rule="evenodd"/><path fill="#000000" fill-opacity="0.0" d="m75.24209 20.168777l38.237854 23.126556" fill-rule="evenodd"/><path stroke="#000000" stroke-width="1.0" stroke-linejoin="round" stroke-linecap="butt" d="m75.24209 20.168777l38.237854 23.126556" fill-rule="evenodd"/><path fill="#cfe2f3" d="m83.772575 46.87702l0 0c0 -1.7946396 1.4548416 -3.2494812 3.2494812 -3.2494812l57.555977 0c0.8618164 0 1.6883392 0.34235764 2.2977295 0.9517517c0.6094055 0.6093941 0.9517517 1.4359131 0.9517517 2.2977295l0 12.997528c0 1.7946396 -1.454834 3.2494812 -3.2494812 3.2494812l-57.555977 0c-1.7946396 0 -3.2494812 -1.4548416 -3.2494812 -3.2494812z" fill-rule="evenodd"/><path stroke="#000000" stroke-width="1.0" stroke-linejoin="round" stroke-linecap="butt" d="m83.772575 46.87702l0 0c0 -1.7946396 1.4548416 -3.2494812 3.2494812 -3.2494812l57.555977 0c0.8618164 0 1.6883392 0.34235764 2.2977295 0.9517517c0.6094055 0.6093941 0.9517517 1.4359131 0.9517517 2.2977295l0 12.997528c0 1.7946396 -1.454834 3.2494812 -3.2494812 3.2494812l-57.555977 0c-1.7946396 0 -3.2494812 -1.4548416 -3.2494812 -3.2494812z" fill-rule="evenodd"/><path fill="#000000" fill-opacity="0.0" d="m83.772575 43.62754l64.05494 0l0 19.49649l-64.05494 0z" fill-rule="evenodd"/><path fill="#000000" d="m108.19586 51.683285l1.40625 0q0.46875 0 0.71875 0.078125q0.34375 0.09375 0.578125 0.34375q0.234375 0.25 0.359375 0.625q0.125 0.359375 0.125 0.890625q0 0.46875 -0.109375 0.8125q-0.140625 0.421875 -0.40625 0.671875q-0.203125 0.203125 -0.546875 0.3125q-0.25 0.078125 -0.6875 0.078125l-1.4375 0l0 -3.8125zm0.765625 0.640625l0 2.53125l0.578125 0q0.3125 0 0.46875 -0.03125q0.1875 -0.046875 0.296875 -0.15625q0.125 -0.125 0.203125 -0.375q0.078125 -0.265625 0.078125 -0.703125q0 -0.4375 -0.078125 -0.671875q-0.078125 -0.234375 -0.21875 -0.359375q-0.140625 -0.140625 -0.34375 -0.1875q-0.171875 -0.046875 -0.640625 -0.046875l-0.34375 0zm3.0665588 0.03125l0 -0.671875l0.734375 0l0 0.671875l-0.734375 0zm0 3.140625l0 -2.765625l0.734375 0l0 2.765625l-0.734375 0zm2.2459564 0l-1.109375 -2.765625l0.765625 0l0.515625 1.40625l0.15625 0.484375q0.0625 -0.1875 0.078125 -0.25q0.03125 -0.109375 0.078125 -0.234375l0.515625 -1.40625l0.75 0l-1.09375 2.765625l-0.65625 0zm2.1976318 -3.140625l0 -0.671875l0.734375 0l0 0.671875l-0.734375 0zm0 3.140625l0 -2.765625l0.734375 0l0 2.765625l-0.734375 0zm4.0272064 0l-0.6875 0l0 -0.40625q-0.171875 0.234375 -0.40625 0.359375q-0.21875 0.109375 -0.453125 0.109375q-0.484375 0 -0.828125 -0.375q-0.328125 -0.390625 -0.328125 -1.078125q0 -0.703125 0.328125 -1.0625q0.328125 -0.375 0.84375 -0.375q0.453125 0 0.796875 0.390625l0 -1.375l0.734375 0l0 3.8125zm-1.953125 -1.4375q0 0.4375 0.125 0.640625q0.171875 0.28125 0.484375 0.28125q0.25 0 0.421875 -0.203125q0.1875 -0.21875 0.1875 -0.65625q0 -0.46875 -0.171875 -0.671875q-0.171875 -0.21875 -0.4375 -0.21875q-0.265625 0 -0.4375 0.203125q-0.171875 0.203125 -0.171875 0.625zm4.2702637 0.5625l0.71875 0.125q-0.125 0.390625 -0.4375 0.609375q-0.296875 0.203125 -0.75 0.203125q-0.734375 0 -1.078125 -0.46875q-0.265625 -0.375 -0.265625 -0.953125q0 -0.6875 0.359375 -1.078125q0.359375 -0.390625 0.90625 -0.390625q0.609375 0 0.96875 0.40625q0.359375 0.40625 0.34375 1.25l-1.828125 0q0 0.328125 0.171875 0.515625q0.171875 0.171875 0.421875 0.171875q0.171875 0 0.28125 -0.09375q0.125 -0.09375 0.1875 -0.296875zm0.046875 -0.75q-0.015625 -0.3125 -0.171875 -0.46875q-0.15625 -0.171875 -0.375 -0.171875q-0.25 0 -0.40625 0.171875q-0.15625 0.171875 -0.140625 0.46875l1.09375 0z" fill-rule="nonzero"/><path fill="#cfe2f3" d="m1.8771203 46.87702l0 0c0 -1.7946396 1.4548416 -3.2494812 3.2494795 -3.2494812l57.555984 0c0.8618164 0 1.6883354 0.34235764 2.2977257 0.9517517c0.6093979 0.6093941 0.9517517 1.4359131 0.9517517 2.2977295l0 12.997528c0 1.7946396 -1.4548416 3.2494812 -3.2494774 3.2494812l-57.555984 0c-1.7946379 0 -3.2494795 -1.4548416 -3.2494795 -3.2494812z" fill-rule="evenodd"/><path stroke="#000000" stroke-width="1.0" stroke-linejoin="round" stroke-linecap="butt" d="m1.8771203 46.87702l0 0c0 -1.7946396 1.4548416 -3.2494812 3.2494795 -3.2494812l57.555984 0c0.8618164 0 1.6883354 0.34235764 2.2977257 0.9517517c0.6093979 0.6093941 0.9517517 1.4359131 0.9517517 2.2977295l0 12.997528c0 1.7946396 -1.4548416 3.2494812 -3.2494774 3.2494812l-57.555984 0c-1.7946379 0 -3.2494795 -1.4548416 -3.2494795 -3.2494812z" fill-rule="evenodd"/><path fill="#000000" fill-opacity="0.0" d="m1.8771203 43.62754l64.05494 0l0 19.49649l-64.05494 0z" fill-rule="evenodd"/><path fill="#000000" d="m24.050833 50.74754l0 -3.171875l-1.140625 0l0 -0.640625l3.03125 0l0 0.640625l-1.125 0l0 3.171875l-0.765625 0zm3.9890137 -0.875l0.71875 0.125q-0.125 0.390625 -0.4375 0.609375q-0.296875 0.203125 -0.75 0.203125q-0.734375 0 -1.078125 -0.46875q-0.265625 -0.375 -0.265625 -0.953125q0 -0.6875 0.359375 -1.078125q0.359375 -0.390625 0.90625 -0.390625q0.609375 0 0.96875 0.40625q0.359375 0.40625 0.34375 1.25l-1.828125 0q0 0.328125 0.171875 0.515625q0.171875 0.171875 0.421875 0.171875q0.171875 0 0.28125 -0.09375q0.125 -0.09375 0.1875 -0.296875zm0.046875 -0.75q-0.015625 -0.3125 -0.171875 -0.46875q-0.15625 -0.171875 -0.375 -0.171875q-0.25 0 -0.40625 0.171875q-0.15625 0.171875 -0.140625 0.46875l1.09375 0zm2.0101318 1.625l-0.734375 0l0 -2.765625l0.6875 0l0 0.390625q0.171875 -0.28125 0.3125 -0.359375q0.140625 -0.09375 0.3125 -0.09375q0.25 0 0.484375 0.140625l-0.21875 0.640625q-0.1875 -0.125 -0.34375 -0.125q-0.15625 0 -0.265625 0.09375q-0.109375 0.078125 -0.171875 0.296875q-0.0625 0.21875 -0.0625 0.921875l0 0.859375zm1.3235016 -2.765625l0.6718731 0l0 0.375q0.359375 -0.4375 0.859375 -0.4375q0.265625 0 0.453125 0.109375q0.203125 0.109375 0.328125 0.328125q0.18750381 -0.21875 0.3906288 -0.328125q0.21875 -0.109375 0.453125 -0.109375q0.3125 0 0.515625 0.125q0.21875 0.125 0.3125 0.359375q0.078125 0.1875 0.078125 0.578125l0 1.765625l-0.734375 0l0 -1.578125q0 -0.40625 -0.078125 -0.53125q-0.09375 -0.15625 -0.3125 -0.15625q-0.140625 0 -0.28125 0.09375q-0.140625 0.09375 -0.20312881 0.28125q-0.046875 0.171875 -0.046875 0.5625l0 1.328125l-0.734375 0l0 -1.515625q0 -0.40625 -0.046875 -0.515625q-0.03125 -0.125 -0.125 -0.171875q-0.078125 -0.0625 -0.21875 -0.0625q-0.15625 0 -0.296875 0.09375q-0.140625 0.09375 -0.203125 0.265625q-0.046875 0.171875 -0.046875 0.5625l0 1.34375l-0.7343731 0l0 -2.765625zm4.784441 -0.375l0 -0.671875l0.734375 0l0 0.671875l-0.734375 0zm0 3.140625l0 -2.765625l0.734375 0l0 2.765625l-0.734375 0zm3.9959564 0l-0.71875 0l0 -1.40625q0 -0.453125 -0.046875 -0.578125q-0.046875 -0.140625 -0.15625 -0.203125q-0.109375 -0.078125 -0.25 -0.078125q-0.203125 0 -0.359375 0.109375q-0.140625 0.09375 -0.203125 0.265625q-0.046875 0.171875 -0.046875 0.640625l0 1.25l-0.734375 0l0 -2.765625l0.6875 0l0 0.40625q0.359375 -0.46875 0.90625 -0.46875q0.234375 0 0.4375 0.09375q0.203125 0.078125 0.296875 0.21875q0.109375 0.140625 0.140625 0.3125q0.046875 0.171875 0.046875 0.484375l0 1.71875zm1.2858887 -1.921875l-0.65625 -0.125q0.109375 -0.390625 0.375 -0.578125q0.28125 -0.203125 0.828125 -0.203125q0.484375 0 0.71875 0.125q0.25 0.109375 0.34375 0.296875q0.09375 0.171875 0.09375 0.640625l0 0.859375q0 0.359375 0.03125 0.53125q0.03125 0.171875 0.125 0.375l-0.71875 0q-0.03125 -0.078125 -0.078125 -0.21875q-0.015625 -0.0625 -0.015625 -0.078125q-0.1875 0.171875 -0.40625 0.265625q-0.21875 0.09375 -0.453125 0.09375q-0.421875 0 -0.671875 -0.234375q-0.25 -0.234375 -0.25 -0.578125q0 -0.234375 0.109375 -0.421875q0.109375 -0.1875 0.3125 -0.28125q0.203125 -0.09375 0.59375 -0.171875q0.5 -0.09375 0.703125 -0.171875l0 -0.078125q0 -0.21875 -0.109375 -0.296875q-0.09375 -0.09375 -0.390625 -0.09375q-0.1875 0 -0.296875 0.078125q-0.109375 0.078125 -0.1875 0.265625zm0.984375 0.59375q-0.140625 0.046875 -0.453125 0.109375q-0.296875 0.0625 -0.390625 0.125q-0.140625 0.109375 -0.140625 0.265625q0 0.15625 0.109375 0.265625q0.125 0.109375 0.296875 0.109375q0.203125 0 0.375 -0.125q0.140625 -0.109375 0.171875 -0.25q0.03125 -0.09375 0.03125 -0.359375l0 -0.140625zm1.4320068 1.328125l0 -3.8125l0.734375 0l0 3.8125l-0.734375 0z" fill-rule="nonzero"/><path fill="#000000" d="m22.782034 57.575665l0 0.546875l-0.5 0l0 -0.4375q0 -0.34375 0.078125 -0.5q0.109375 -0.203125 0.34375 -0.3125l0.125 0.171875q-0.15625 0.0625 -0.21875 0.1875q-0.0625 0.109375 -0.078125 0.34375l0.25 0zm0.8125 0l0 0.546875l-0.515625 0l0 -0.4375q0 -0.34375 0.09375 -0.5q0.109375 -0.203125 0.34375 -0.3125l0.109375 0.171875q-0.140625 0.0625 -0.21875 0.1875q-0.0625 0.109375 -0.0625 0.34375l0.25 0zm0.60243225 3.171875l0 -3.8125l0.46875 0l0 2.171875l1.109375 -1.125l0.59375 0l-1.046875 1.03125l1.15625 1.734375l-0.578125 0l-0.90625 -1.40625l-0.328125 0.3125l0 1.09375l-0.46875 0zm2.6640625 -3.28125l0 -0.53125l0.46875 0l0 0.53125l-0.46875 0zm0 3.28125l0 -2.765625l0.46875 0l0 2.765625l-0.46875 0zm1.1681213 0l0 -3.8125l0.46875 0l0 3.8125l-0.46875 0zm1.0118713 -1.375q0 -0.78125 0.4375 -1.140625q0.34375 -0.3125 0.859375 -0.3125q0.578125 0 0.9375 0.375q0.359375 0.375 0.359375 1.03125q0 0.53125 -0.15625 0.84375q-0.15625 0.296875 -0.46875 0.46875q-0.3125 0.171875 -0.671875 0.171875q-0.578125 0 -0.9375 -0.375q-0.359375 -0.375 -0.359375 -1.0625zm0.484375 0q0 0.53125 0.234375 0.796875q0.234375 0.25 0.578125 0.25q0.359375 0 0.578125 -0.265625q0.234375 -0.265625 0.234375 -0.796875q0 -0.515625 -0.234375 -0.78125q-0.234375 -0.265625 -0.578125 -0.265625q-0.34375 0 -0.578125 0.265625q-0.234375 0.265625 -0.234375 0.796875zm2.57263 1.609375l0.453125 0.0625q0.03125 0.203125 0.15625 0.3125q0.171875 0.125 0.484375 0.125q0.328125 0 0.5 -0.140625q0.171875 -0.125 0.23437881 -0.359375q0.046875 -0.140625 0.03125 -0.59375q-0.2968788 0.359375 -0.7656288 0.359375q-0.5625 0 -0.875 -0.40625q-0.3125 -0.421875 -0.3125 -0.984375q0 -0.40625 0.140625 -0.734375q0.140625 -0.34375 0.40625 -0.515625q0.28125 -0.1875 0.65625 -0.1875q0.484375 0 0.7968788 0.390625l0 -0.328125l0.4375 0l0 2.390625q0 0.640625 -0.140625 0.90625q-0.125 0.28125 -0.40625 0.4375q-0.2812538 0.15625 -0.7031288 0.15625q-0.5 0 -0.8125 -0.234375q-0.296875 -0.21875 -0.28125 -0.65625zm0.390625 -1.671875q0 0.546875 0.203125 0.796875q0.21875 0.25 0.546875 0.25q0.328125 0 0.546875 -0.25q0.21875381 -0.25 0.21875381 -0.78125q0 -0.5 -0.23437881 -0.75q-0.21875 -0.265625 -0.53125 -0.265625q-0.3125 0 -0.53125 0.25q-0.21875 0.25 -0.21875 0.75zm2.6507607 1.4375l0 -2.765625l0.421875 0l0 0.421875q0.15625 -0.296875 0.296875 -0.390625q0.140625 -0.09375 0.296875 -0.09375q0.25 0 0.484375 0.15625l-0.15625 0.4375q-0.171875 -0.109375 -0.34375 -0.109375q-0.15625 0 -0.28125 0.09375q-0.125 0.09375 -0.171875 0.25q-0.078125 0.25 -0.078125 0.546875l0 1.453125l-0.46875 0zm3.5868073 -0.34375q-0.265625 0.21875 -0.515625 0.3125q-0.234375 0.09375 -0.5 0.09375q-0.453125 0 -0.703125 -0.21875q-0.25 -0.21875 -0.25 -0.578125q0 -0.203125 0.09375 -0.359375q0.09375 -0.171875 0.234375 -0.265625q0.15625 -0.109375 0.34375 -0.15625q0.140625 -0.046875 0.421875 -0.078125q0.5625 -0.0625 0.828125 -0.15625q0.015625 -0.09375 0.015625 -0.125q0 -0.28125 -0.140625 -0.40625q-0.171875 -0.15625 -0.53125 -0.15625q-0.328125 0 -0.484375 0.125q-0.15625 0.109375 -0.234375 0.40625l-0.46875 -0.0625q0.0625 -0.296875 0.203125 -0.46875q0.15625 -0.1875 0.421875 -0.28125q0.265625 -0.109375 0.625 -0.109375q0.359375 0 0.578125 0.09375q0.21875 0.078125 0.328125 0.203125q0.109375 0.125 0.140625 0.3125q0.03125 0.125 0.03125 0.4375l0 0.625q0 0.65625 0.03125 0.828125q0.03125 0.171875 0.109375 0.328125l-0.484375 0q-0.078125 -0.140625 -0.09375 -0.34375zm-0.046875 -1.046875q-0.25 0.109375 -0.765625 0.1875q-0.28125 0.03125 -0.40625 0.09375q-0.109375 0.046875 -0.1875 0.15625q-0.0625 0.09375 -0.0625 0.21875q0 0.1875 0.140625 0.3125q0.140625 0.125 0.421875 0.125q0.265625 0 0.46875 -0.125q0.21875 -0.125 0.328125 -0.328125q0.0625 -0.15625 0.0625 -0.46875l0 -0.171875zm1.1976318 1.390625l0 -2.765625l0.421875 0l0 0.390625q0.140625 -0.203125 0.34375 -0.328125q0.21875 -0.125 0.5 -0.125q0.3125 0 0.5 0.125q0.203125 0.125 0.28125 0.359375q0.328125 -0.484375 0.84375 -0.484375q0.421875 0 0.640625 0.234375q0.21875 0.21875 0.21875 0.703125l0 1.890625l-0.46875 0l0 -1.734375q0 -0.28125 -0.046875 -0.40625q-0.046875 -0.125 -0.171875 -0.203125q-0.109375 -0.078125 -0.265625 -0.078125q-0.296875 0 -0.484375 0.203125q-0.1875 0.1875 -0.1875 0.609375l0 1.609375l-0.46875 0l0 -1.796875q0 -0.3125 -0.125 -0.46875q-0.109375 -0.15625 -0.375 -0.15625q-0.1875 0 -0.359375 0.109375q-0.171875 0.09375 -0.25 0.296875q-0.078125 0.203125 -0.078125 0.578125l0 1.4375l-0.46875 0zm4.3133698 -3.3125l0 -0.546875l0.515625 0l0 0.4375q0 0.34375 -0.09375 0.5q-0.109375 0.21875 -0.34375 0.3125l-0.109375 -0.171875q0.140625 -0.0625 0.203125 -0.1875q0.078125 -0.125 0.078125 -0.34375l-0.25 0zm0.8125 0l0 -0.546875l0.5 0l0 0.4375q0 0.34375 -0.078125 0.5q-0.109375 0.21875 -0.34375 0.3125l-0.125 -0.171875q0.140625 -0.0625 0.203125 -0.1875q0.078125 -0.125 0.09375 -0.34375l-0.25 0z" fill-rule="nonzero"/><path fill="#cfe2f3" d="m43.5444 89.814224l0 0c0 -1.7946396 1.4548416 -3.2494812 3.2494812 -3.2494812l57.55598 0c0.8618164 0 1.6883316 0.34236145 2.2977295 0.9517517c0.6093979 0.6093979 0.9517517 1.4359131 0.9517517 2.2977295l0 12.997528c0 1.7946396 -1.4548416 3.2494812 -3.2494812 3.2494812l-57.55598 0c-1.7946396 0 -3.2494812 -1.4548416 -3.2494812 -3.2494812z" fill-rule="evenodd"/><path stroke="#000000" stroke-width="1.0" stroke-linejoin="round" stroke-linecap="butt" d="m43.5444 89.814224l0 0c0 -1.7946396 1.4548416 -3.2494812 3.2494812 -3.2494812l57.55598 0c0.8618164 0 1.6883316 0.34236145 2.2977295 0.9517517c0.6093979 0.6093979 0.9517517 1.4359131 0.9517517 2.2977295l0 12.997528c0 1.7946396 -1.4548416 3.2494812 -3.2494812 3.2494812l-57.55598 0c-1.7946396 0 -3.2494812 -1.4548416 -3.2494812 -3.2494812z" fill-rule="evenodd"/><path fill="#000000" fill-opacity="0.0" d="m43.5444 86.56474l64.05495 0l0 19.49649l-64.05495 0z" fill-rule="evenodd"/><path fill="#000000" d="m65.71811 93.684746l0 -3.171875l-1.140625 0l0 -0.640625l3.03125 0l0 0.640625l-1.125 0l0 3.171875l-0.765625 0zm3.9890137 -0.875l0.71875 0.125q-0.125 0.390625 -0.4375 0.609375q-0.296875 0.203125 -0.75 0.203125q-0.734375 0 -1.078125 -0.46875q-0.265625 -0.375 -0.265625 -0.953125q0 -0.6875 0.359375 -1.078125q0.359375 -0.390625 0.90625 -0.390625q0.609375 0 0.96875 0.40625q0.359375 0.40625 0.34375 1.25l-1.828125 0q0 0.328125 0.171875 0.515625q0.171875 0.171875 0.421875 0.171875q0.171875 0 0.28125 -0.09375q0.125 -0.09375 0.1875 -0.296875zm0.046875 -0.75q-0.015625 -0.3125 -0.171875 -0.46875q-0.15625 -0.171875 -0.375 -0.171875q-0.25 0 -0.40625 0.171875q-0.15625 0.171875 -0.140625 0.46875l1.09375 0zm2.0101318 1.625l-0.734375 0l0 -2.765625l0.6875 0l0 0.390625q0.171875 -0.28125 0.3125 -0.359375q0.140625 -0.09375 0.3125 -0.09375q0.25 0 0.484375 0.140625l-0.21875 0.640625q-0.1875 -0.125 -0.34375 -0.125q-0.15625 0 -0.265625 0.09375q-0.109375 0.078125 -0.171875 0.296875q-0.0625 0.21875 -0.0625 0.921875l0 0.859375zm1.3235016 -2.765625l0.671875 0l0 0.375q0.359375 -0.4375 0.859375 -0.4375q0.265625 0 0.453125 0.109375q0.203125 0.109375 0.328125 0.328125q0.18750763 -0.21875 0.39063263 -0.328125q0.21875 -0.109375 0.453125 -0.109375q0.3125 0 0.515625 0.125q0.21875 0.125 0.3125 0.359375q0.078125 0.1875 0.078125 0.578125l0 1.765625l-0.734375 0l0 -1.578125q0 -0.40625 -0.078125 -0.53125q-0.09375 -0.15625 -0.3125 -0.15625q-0.140625 0 -0.28125 0.09375q-0.140625 0.09375 -0.20313263 0.28125q-0.046875 0.171875 -0.046875 0.5625l0 1.328125l-0.734375 0l0 -1.515625q0 -0.40625 -0.046875 -0.515625q-0.03125 -0.125 -0.125 -0.171875q-0.078125 -0.0625 -0.21875 -0.0625q-0.15625 0 -0.296875 0.09375q-0.140625 0.09375 -0.203125 0.265625q-0.046875 0.171875 -0.046875 0.5625l0 1.34375l-0.734375 0l0 -2.765625zm4.7844467 -0.375l0 -0.671875l0.734375 0l0 0.671875l-0.734375 0zm0 3.140625l0 -2.765625l0.734375 0l0 2.765625l-0.734375 0zm3.9959564 0l-0.71875 0l0 -1.40625q0 -0.453125 -0.046875 -0.578125q-0.046875 -0.140625 -0.15625 -0.203125q-0.109375 -0.078125 -0.25 -0.078125q-0.203125 0 -0.359375 0.109375q-0.140625 0.09375 -0.203125 0.265625q-0.046875 0.171875 -0.046875 0.640625l0 1.25l-0.734375 0l0 -2.765625l0.6875 0l0 0.40625q0.359375 -0.46875 0.90625 -0.46875q0.234375 0 0.4375 0.09375q0.203125 0.078125 0.296875 0.21875q0.109375 0.140625 0.140625 0.3125q0.046875 0.171875 0.046875 0.484375l0 1.71875zm1.2858887 -1.921875l-0.65625 -0.125q0.109375 -0.390625 0.375 -0.578125q0.28125 -0.203125 0.828125 -0.203125q0.484375 0 0.71875 0.125q0.25 0.109375 0.34375 0.296875q0.09375 0.171875 0.09375 0.640625l0 0.859375q0 0.359375 0.03125 0.53125q0.03125 0.171875 0.125 0.375l-0.71875 0q-0.03125 -0.078125 -0.078125 -0.21875q-0.015625 -0.0625 -0.015625 -0.078125q-0.1875 0.171875 -0.40625 0.265625q-0.21875 0.09375 -0.453125 0.09375q-0.421875 0 -0.671875 -0.234375q-0.25 -0.234375 -0.25 -0.578125q0 -0.234375 0.109375 -0.421875q0.109375 -0.1875 0.3125 -0.28125q0.203125 -0.09375 0.59375 -0.171875q0.5 -0.09375 0.703125 -0.171875l0 -0.078125q0 -0.21875 -0.109375 -0.296875q-0.09375 -0.09375 -0.390625 -0.09375q-0.1875 0 -0.296875 0.078125q-0.109375 0.078125 -0.1875 0.265625zm0.984375 0.59375q-0.140625 0.046875 -0.453125 0.109375q-0.296875 0.0625 -0.390625 0.125q-0.140625 0.109375 -0.140625 0.265625q0 0.15625 0.109375 0.265625q0.125 0.109375 0.296875 0.109375q0.203125 0 0.375 -0.125q0.140625 -0.109375 0.171875 -0.25q0.03125 -0.09375 0.03125 -0.359375l0 -0.140625zm1.4320068 1.328125l0 -3.8125l0.734375 0l0 3.8125l-0.734375 0z" fill-rule="nonzero"/><path fill="#000000" d="m67.70655 100.51287l0 0.546875l-0.5 0l0 -0.4375q0 -0.34375 0.078125 -0.5q0.109375 -0.203125 0.34375 -0.3125l0.125 0.171875q-0.15625 0.0625 -0.21875 0.1875q-0.0625 0.109375 -0.078125 0.34375l0.25 0zm0.8125 0l0 0.546875l-0.515625 0l0 -0.4375q0 -0.34375 0.09375 -0.5q0.109375 -0.203125 0.34375 -0.3125l0.109375 0.171875q-0.140625 0.0625 -0.21875 0.1875q-0.0625 0.109375 -0.0625 0.34375l0.25 0zm0.58680725 3.171875l0 -2.765625l0.421875 0l0 0.390625q0.140625 -0.203125 0.34375 -0.328125q0.21875 -0.125 0.5 -0.125q0.3125 0 0.5 0.125q0.203125 0.125 0.28125 0.359375q0.328125 -0.484375 0.84375 -0.484375q0.421875 0 0.640625 0.234375q0.21875 0.21875 0.21875 0.703125l0 1.890625l-0.46875 0l0 -1.734375q0 -0.28125 -0.046875 -0.40625q-0.046875 -0.125 -0.171875 -0.203125q-0.109375 -0.078125 -0.265625 -0.078125q-0.296875 0 -0.484375 0.203125q-0.1875 0.1875 -0.1875 0.609375l0 1.609375l-0.46875 0l0 -1.796875q0 -0.3125 -0.125 -0.46875q-0.109375 -0.15625 -0.375 -0.15625q-0.1875 0 -0.359375 0.109375q-0.171875 0.09375 -0.25 0.296875q-0.078125 0.203125 -0.078125 0.578125l0 1.4375l-0.46875 0zm6.3446198 -0.890625l0.46875763 0.0625q-0.109375 0.421875 -0.42188263 0.65625q-0.296875 0.234375 -0.78125 0.234375q-0.609375 0 -0.96875 -0.375q-0.359375 -0.375 -0.359375 -1.046875q0 -0.703125 0.359375 -1.078125q0.359375 -0.390625 0.9375 -0.390625q0.5625 0 0.9062576 0.375q0.34375 0.375 0.34375 1.0625q0 0.046875 0 0.125l-2.0625076 0q0.03125 0.453125 0.265625 0.703125q0.234375 0.234375 0.578125 0.234375q0.25 0 0.4375 -0.125q0.1875 -0.140625 0.296875 -0.4375zm-1.546875 -0.75l1.546875 0q-0.03125 -0.359375 -0.171875 -0.53125q-0.234375 -0.265625 -0.59375 -0.265625q-0.3125 0 -0.53125 0.21875q-0.21875 0.203125 -0.25 0.578125zm3.6351395 1.21875l0.0625 0.421875q-0.1875 0.03125 -0.34375 0.03125q-0.265625 0 -0.40625 -0.078125q-0.140625 -0.078125 -0.203125 -0.203125q-0.046875 -0.140625 -0.046875 -0.5625l0 -1.59375l-0.34375 0l0 -0.359375l0.34375 0l0 -0.6875l0.46875 -0.28125l0 0.96875l0.46875 0l0 0.359375l-0.46875 0l0 1.625q0 0.203125 0.015625 0.265625q0.03125 0.046875 0.078125 0.078125q0.0625 0.03125 0.171875 0.03125q0.078125 0 0.203125 -0.015625zm2.3553314 -0.46875l0.46875 0.0625q-0.109375 0.421875 -0.421875 0.65625q-0.296875 0.234375 -0.78125 0.234375q-0.609375 0 -0.96875 -0.375q-0.359375 -0.375 -0.359375 -1.046875q0 -0.703125 0.359375 -1.078125q0.359375 -0.390625 0.9375 -0.390625q0.5625 0 0.90625 0.375q0.34375 0.375 0.34375 1.0625q0 0.046875 0 0.125l-2.0625 0q0.03125 0.453125 0.265625 0.703125q0.234375 0.234375 0.578125 0.234375q0.25 0 0.4375 -0.125q0.1875 -0.140625 0.296875 -0.4375zm-1.546875 -0.75l1.546875 0q-0.03125 -0.359375 -0.171875 -0.53125q-0.234375 -0.265625 -0.59375 -0.265625q-0.3125 0 -0.53125 0.21875q-0.21875 0.203125 -0.25 0.578125zm2.6038818 1.640625l0 -2.765625l0.421875 0l0 0.421875q0.15625 -0.296875 0.296875 -0.390625q0.140625 -0.09375 0.296875 -0.09375q0.25 0 0.484375 0.15625l-0.15625 0.4375q-0.171875 -0.109375 -0.34375 -0.109375q-0.15625 0 -0.28125 0.09375q-0.125 0.09375 -0.171875 0.25q-0.078125 0.25 -0.078125 0.546875l0 1.453125l-0.46875 0zm1.6493073 -3.3125l0 -0.546875l0.515625 0l0 0.4375q0 0.34375 -0.09375 0.5q-0.109375 0.21875 -0.34375 0.3125l-0.109375 -0.171875q0.140625 -0.0625 0.203125 -0.1875q0.078125 -0.125 0.078125 -0.34375l-0.25 0zm0.8125 0l0 -0.546875l0.5 0l0 0.4375q0 0.34375 -0.078125 0.5q-0.109375 0.21875 -0.34375 0.3125l-0.125 -0.171875q0.140625 -0.0625 0.203125 -0.1875q0.078125 -0.125 0.09375 -0.34375l-0.25 0z" fill-rule="nonzero"/><path fill="#000000" fill-opacity="0.0" d="m116.244514 63.106636l-39.1389 23.433578" fill-rule="evenodd"/><path stroke="#000000" stroke-width="1.0" stroke-linejoin="round" stroke-linecap="butt" d="m116.244514 63.106636l-39.1389 23.433578" fill-rule="evenodd"/><path fill="#000000" fill-opacity="0.0" d="m116.244514 63.106636l38.23786 23.126556" fill-rule="evenodd"/><path stroke="#000000" stroke-width="1.0" stroke-linejoin="round" stroke-linecap="butt" d="m116.244514 63.106636l38.23786 23.126556" fill-rule="evenodd"/><path fill="#cfe2f3" d="m121.5227 89.814224l0 0c0 -1.7946396 1.4548416 -3.2494812 3.2494736 -3.2494812l57.555984 0c0.8618164 0 1.6883392 0.34236145 2.2977295 0.9517517c0.60939026 0.6093979 0.9517517 1.4359131 0.9517517 2.2977295l0 12.997528c0 1.7946396 -1.4548492 3.2494812 -3.2494812 3.2494812l-57.555984 0c-1.794632 0 -3.2494736 -1.4548416 -3.2494736 -3.2494812z" fill-rule="evenodd"/><path stroke="#000000" stroke-width="1.0" stroke-linejoin="round" stroke-linecap="butt" d="m121.5227 89.814224l0 0c0 -1.7946396 1.4548416 -3.2494812 3.2494736 -3.2494812l57.555984 0c0.8618164 0 1.6883392 0.34236145 2.2977295 0.9517517c0.60939026 0.6093979 0.9517517 1.4359131 0.9517517 2.2977295l0 12.997528c0 1.7946396 -1.4548492 3.2494812 -3.2494812 3.2494812l-57.555984 0c-1.794632 0 -3.2494736 -1.4548416 -3.2494736 -3.2494812z" fill-rule="evenodd"/><path fill="#000000" fill-opacity="0.0" d="m121.5227 86.56474l64.05494 0l0 19.49649l-64.05494 0z" fill-rule="evenodd"/><path fill="#000000" d="m146.83183 98.43299l0 -3.8125l1.625 0q0.609375 0 0.875 0.109375q0.28125 0.09375 0.453125 0.359375q0.171875 0.265625 0.171875 0.59375q0 0.4375 -0.265625 0.71875q-0.25 0.28125 -0.75 0.34375q0.25 0.15625 0.40625 0.328125q0.171875 0.171875 0.453125 0.609375l0.453125 0.75l-0.921875 0l-0.546875 -0.828125q-0.296875 -0.453125 -0.40625 -0.5625q-0.109375 -0.109375 -0.234375 -0.15625q-0.125 -0.046875 -0.390625 -0.046875l-0.15625 0l0 1.59375l-0.765625 0zm0.765625 -2.203125l0.578125 0q0.546875 0 0.6875 -0.046875q0.140625 -0.046875 0.21875 -0.15625q0.078125 -0.125 0.078125 -0.28125q0 -0.203125 -0.109375 -0.3125q-0.09375 -0.125 -0.28125 -0.15625q-0.09375 -0.015625 -0.5625 -0.015625l-0.609375 0l0 0.96875zm3.6134338 0.28125l-0.65625 -0.125q0.109375 -0.390625 0.375 -0.578125q0.28125 -0.203125 0.828125 -0.203125q0.484375 0 0.71875 0.125q0.25 0.109375 0.34375 0.296875q0.09375 0.171875 0.09375 0.640625l0 0.859375q0 0.359375 0.03125 0.53125q0.03125 0.171875 0.125 0.375l-0.71875 0q-0.03125 -0.078125 -0.078125 -0.21875q-0.015625 -0.0625 -0.015625 -0.078125q-0.1875 0.171875 -0.40625 0.265625q-0.21875 0.09375 -0.453125 0.09375q-0.421875 0 -0.671875 -0.234375q-0.25 -0.234375 -0.25 -0.578125q0 -0.234375 0.109375 -0.421875q0.109375 -0.1875 0.3125 -0.28125q0.203125 -0.09375 0.59375 -0.171875q0.5 -0.09375 0.703125 -0.171875l0 -0.078125q0 -0.21875 -0.109375 -0.296875q-0.09375 -0.09375 -0.390625 -0.09375q-0.1875 0 -0.296875 0.078125q-0.109375 0.078125 -0.1875 0.265625zm0.984375 0.59375q-0.140625 0.046875 -0.453125 0.109375q-0.296875 0.0625 -0.390625 0.125q-0.140625 0.109375 -0.140625 0.265625q0 0.15625 0.109375 0.265625q0.125 0.109375 0.296875 0.109375q0.203125 0 0.375 -0.125q0.140625 -0.109375 0.171875 -0.25q0.03125 -0.09375 0.03125 -0.359375l0 -0.140625zm1.4320068 -1.8125l0 -0.671875l0.734375 0l0 0.671875l-0.734375 0zm0 3.140625l0 -2.765625l0.734375 0l0 2.765625l-0.734375 0zm1.2303314 -0.78125l0.734375 -0.125q0.046875 0.21875 0.1875 0.328125q0.140625 0.109375 0.40625 0.109375q0.28125 0 0.421875 -0.09375q0.09375 -0.078125 0.09375 -0.203125q0 -0.078125 -0.046875 -0.140625q-0.0625 -0.046875 -0.25 -0.09375q-0.875 -0.1875 -1.125 -0.359375q-0.328125 -0.21875 -0.328125 -0.625q0 -0.359375 0.28125 -0.59375q0.296875 -0.25 0.890625 -0.25q0.5625 0 0.84375 0.1875q0.28125 0.1875 0.375 0.546875l-0.6875 0.125q-0.046875 -0.15625 -0.171875 -0.234375q-0.125 -0.09375 -0.34375 -0.09375q-0.296875 0 -0.421875 0.078125q-0.078125 0.0625 -0.078125 0.140625q0 0.078125 0.078125 0.140625q0.09375 0.078125 0.671875 0.21875q0.59375 0.125 0.828125 0.3125q0.21875 0.1875 0.21875 0.546875q0 0.375 -0.3125 0.65625q-0.3125 0.265625 -0.9375 0.265625q-0.5625 0 -0.90625 -0.21875q-0.328125 -0.234375 -0.421875 -0.625zm4.822632 -0.09375l0.71875 0.125q-0.125 0.390625 -0.4375 0.609375q-0.296875 0.203125 -0.75 0.203125q-0.734375 0 -1.078125 -0.46875q-0.265625 -0.375 -0.265625 -0.953125q0 -0.6875 0.359375 -1.078125q0.359375 -0.390625 0.90625 -0.390625q0.609375 0 0.96875 0.40625q0.359375 0.40625 0.34375 1.25l-1.828125 0q0 0.328125 0.171875 0.515625q0.171875 0.171875 0.421875 0.171875q0.171875 0 0.28125 -0.09375q0.125 -0.09375 0.1875 -0.296875zm0.046875 -0.75q-0.015625 -0.3125 -0.171875 -0.46875q-0.15625 -0.171875 -0.375 -0.171875q-0.25 0 -0.40625 0.171875q-0.15625 0.171875 -0.140625 0.46875l1.09375 0z" fill-rule="nonzero"/><path fill="#000000" fill-opacity="0.0" d="m153.99463 106.04384l-39.138893 23.433578" fill-rule="evenodd"/><path stroke="#000000" stroke-width="1.0" stroke-linejoin="round" stroke-linecap="butt" d="m153.99463 106.04384l-39.138893 23.433578" fill-rule="evenodd"/><path fill="#000000" fill-opacity="0.0" d="m153.99463 106.04384l38.237854 23.126556" fill-rule="evenodd"/><path stroke="#000000" stroke-width="1.0" stroke-linejoin="round" stroke-linecap="butt" d="m153.99463 106.04384l38.237854 23.126556" fill-rule="evenodd"/><path fill="#cfe2f3" d="m83.772575 132.75143l0 0c0 -1.7946472 1.4548416 -3.2494812 3.2494812 -3.2494812l57.555977 0c0.8618164 0 1.6883392 0.3423462 2.2977295 0.9517517c0.6094055 0.60939026 0.9517517 1.4359131 0.9517517 2.2977295l0 12.997528c0 1.794632 -1.454834 3.2494812 -3.2494812 3.2494812l-57.555977 0c-1.7946396 0 -3.2494812 -1.4548492 -3.2494812 -3.2494812z" fill-rule="evenodd"/><path stroke="#000000" stroke-width="1.0" stroke-linejoin="round" stroke-linecap="butt" d="m83.772575 132.75143l0 0c0 -1.7946472 1.4548416 -3.2494812 3.2494812 -3.2494812l57.555977 0c0.8618164 0 1.6883392 0.3423462 2.2977295 0.9517517c0.6094055 0.60939026 0.9517517 1.4359131 0.9517517 2.2977295l0 12.997528c0 1.794632 -1.454834 3.2494812 -3.2494812 3.2494812l-57.555977 0c-1.7946396 0 -3.2494812 -1.4548492 -3.2494812 -3.2494812z" fill-rule="evenodd"/><path fill="#000000" fill-opacity="0.0" d="m83.772575 129.50195l64.05494 0l0 19.49649l-64.05494 0z" fill-rule="evenodd"/><path fill="#000000" d="m105.94629 136.62195l0 -3.171875l-1.140625 0l0 -0.640625l3.03125 0l0 0.640625l-1.125 0l0 3.171875l-0.765625 0zm3.9890137 -0.875l0.71875 0.125q-0.125 0.390625 -0.4375 0.609375q-0.296875 0.203125 -0.75 0.203125q-0.734375 0 -1.078125 -0.46875q-0.265625 -0.375 -0.265625 -0.953125q0 -0.6875 0.359375 -1.078125q0.359375 -0.390625 0.90625 -0.390625q0.609375 0 0.96875 0.40625q0.359375 0.40625 0.34375 1.25l-1.828125 0q0 0.328125 0.171875 0.515625q0.171875 0.171875 0.421875 0.171875q0.171875 0 0.28125 -0.09375q0.125 -0.09375 0.1875 -0.296875zm0.046875 -0.75q-0.015625 -0.3125 -0.171875 -0.46875q-0.15625 -0.171875 -0.375 -0.171875q-0.25 0 -0.40625 0.171875q-0.15625 0.171875 -0.140625 0.46875l1.09375 0zm2.0101318 1.625l-0.734375 0l0 -2.765625l0.6875 0l0 0.390625q0.171875 -0.28125 0.3125 -0.359375q0.140625 -0.09375 0.3125 -0.09375q0.25 0 0.484375 0.140625l-0.21875 0.640625q-0.1875 -0.125 -0.34375 -0.125q-0.15625 0 -0.265625 0.09375q-0.109375 0.078125 -0.171875 0.296875q-0.0625 0.21875 -0.0625 0.921875l0 0.859375zm1.3235016 -2.765625l0.671875 0l0 0.375q0.359375 -0.4375 0.859375 -0.4375q0.265625 0 0.453125 0.109375q0.203125 0.109375 0.328125 0.328125q0.1875 -0.21875 0.390625 -0.328125q0.21875 -0.109375 0.453125 -0.109375q0.3125 0 0.515625 0.125q0.21875 0.125 0.3125 0.359375q0.078125 0.1875 0.078125 0.578125l0 1.765625l-0.734375 0l0 -1.578125q0 -0.40625 -0.078125 -0.53125q-0.09375 -0.15625 -0.3125 -0.15625q-0.140625 0 -0.28125 0.09375q-0.140625 0.09375 -0.203125 0.28125q-0.046875 0.171875 -0.046875 0.5625l0 1.328125l-0.734375 0l0 -1.515625q0 -0.40625 -0.046875 -0.515625q-0.03125 -0.125 -0.125 -0.171875q-0.078125 -0.0625 -0.21875 -0.0625q-0.15625 0 -0.296875 0.09375q-0.140625 0.09375 -0.203125 0.265625q-0.046875 0.171875 -0.046875 0.5625l0 1.34375l-0.734375 0l0 -2.765625zm4.784439 -0.375l0 -0.671875l0.734375 0l0 0.671875l-0.734375 0zm0 3.140625l0 -2.765625l0.734375 0l0 2.765625l-0.734375 0zm3.9959564 0l-0.71875 0l0 -1.40625q0 -0.453125 -0.046875 -0.578125q-0.046875 -0.140625 -0.15625 -0.203125q-0.109375 -0.078125 -0.25 -0.078125q-0.203125 0 -0.359375 0.109375q-0.140625 0.09375 -0.203125 0.265625q-0.046875 0.171875 -0.046875 0.640625l0 1.25l-0.734375 0l0 -2.765625l0.6875 0l0 0.40625q0.359375 -0.46875 0.90625 -0.46875q0.234375 0 0.4375 0.09375q0.203125 0.078125 0.296875 0.21875q0.109375 0.140625 0.140625 0.3125q0.046875 0.171875 0.046875 0.484375l0 1.71875zm1.2858887 -1.921875l-0.65625 -0.125q0.109375 -0.390625 0.375 -0.578125q0.28125 -0.203125 0.828125 -0.203125q0.484375 0 0.71875 0.125q0.25 0.109375 0.34375 0.296875q0.09375 0.171875 0.09375 0.640625l0 0.859375q0 0.359375 0.03125 0.53125q0.03125 0.171875 0.125 0.375l-0.71875 0q-0.03125 -0.078125 -0.078125 -0.21875q-0.015625 -0.0625 -0.015625 -0.078125q-0.1875 0.171875 -0.40625 0.265625q-0.21875 0.09375 -0.453125 0.09375q-0.421875 0 -0.671875 -0.234375q-0.25 -0.234375 -0.25 -0.578125q0 -0.234375 0.109375 -0.421875q0.109375 -0.1875 0.3125 -0.28125q0.203125 -0.09375 0.59375 -0.171875q0.5 -0.09375 0.703125 -0.171875l0 -0.078125q0 -0.21875 -0.109375 -0.296875q-0.09375 -0.09375 -0.390625 -0.09375q-0.1875 0 -0.296875 0.078125q-0.109375 0.078125 -0.1875 0.265625zm0.984375 0.59375q-0.140625 0.046875 -0.453125 0.109375q-0.296875 0.0625 -0.390625 0.125q-0.140625 0.109375 -0.140625 0.265625q0 0.15625 0.109375 0.265625q0.125 0.109375 0.296875 0.109375q0.203125 0 0.375 -0.125q0.140625 -0.109375 0.171875 -0.25q0.03125 -0.09375 0.03125 -0.359375l0 -0.140625zm1.4320068 1.328125l0 -3.8125l0.734375 0l0 3.8125l-0.734375 0z" fill-rule="nonzero"/><path fill="#000000" d="m106.153915 143.45007l0 0.546875l-0.5 0l0 -0.4375q0 -0.34375 0.078125 -0.5q0.109375 -0.203125 0.34375 -0.3125l0.125 0.171875q-0.15625 0.0625 -0.21875 0.1875q-0.0625 0.109375 -0.078125 0.34375l0.25 0zm0.8125 0l0 0.546875l-0.515625 0l0 -0.4375q0 -0.34375 0.09375 -0.5q0.109375 -0.203125 0.34375 -0.3125l0.109375 0.171875q-0.140625 0.0625 -0.21875 0.1875q-0.0625 0.109375 -0.0625 0.34375l0.25 0zm0.39930725 2.34375l0.46875 -0.0625q0.046875 0.265625 0.21875 0.421875q0.171875 0.140625 0.5 0.140625q0.328125 0 0.484375 -0.125q0.15625 -0.125 0.15625 -0.3125q0 -0.15625 -0.140625 -0.25q-0.09375 -0.0625 -0.484375 -0.15625q-0.515625 -0.125 -0.71875 -0.21875q-0.1875 -0.09375 -0.296875 -0.265625q-0.109375 -0.171875 -0.109375 -0.375q0 -0.1875 0.078125 -0.34375q0.09375 -0.15625 0.25 -0.265625q0.109375 -0.078125 0.296875 -0.125q0.1875 -0.0625 0.40625 -0.0625q0.3125 0 0.5625 0.09375q0.25 0.09375 0.359375 0.265625q0.125 0.15625 0.171875 0.421875l-0.46875 0.0625q-0.03125 -0.21875 -0.1875 -0.328125q-0.140625 -0.125 -0.40625 -0.125q-0.328125 0 -0.46875 0.109375q-0.140625 0.09375 -0.140625 0.25q0 0.078125 0.0625 0.15625q0.0625 0.078125 0.1875 0.125q0.0625 0.03125 0.40625 0.125q0.5 0.125 0.6875 0.21875q0.203125 0.078125 0.3125 0.25q0.109375 0.15625 0.109375 0.390625q0 0.234375 -0.140625 0.453125q-0.125 0.203125 -0.390625 0.3125q-0.25 0.109375 -0.578125 0.109375q-0.53125 0 -0.828125 -0.21875q-0.28125 -0.234375 -0.359375 -0.671875zm4.7578125 -0.0625l0.46875 0.0625q-0.109375 0.421875 -0.421875 0.65625q-0.296875 0.234375 -0.78125 0.234375q-0.609375 0 -0.96875 -0.375q-0.359375 -0.375 -0.359375 -1.046875q0 -0.703125 0.359375 -1.078125q0.359375 -0.390625 0.9375 -0.390625q0.5625 0 0.90625 0.375q0.34375 0.375 0.34375 1.0625q0 0.046875 0 0.125l-2.0625 0q0.03125 0.453125 0.265625 0.703125q0.234375 0.234375 0.578125 0.234375q0.25 0 0.4375 -0.125q0.1875 -0.140625 0.296875 -0.4375zm-1.546875 -0.75l1.546875 0q-0.03125 -0.359375 -0.171875 -0.53125q-0.234375 -0.265625 -0.59375 -0.265625q-0.3125 0 -0.53125 0.21875q-0.21875 0.203125 -0.25 0.578125zm4.416382 0.625l0.453125 0.0625q-0.0625 0.484375 -0.375 0.75q-0.3125 0.265625 -0.765625 0.265625q-0.578125 0 -0.921875 -0.359375q-0.34375 -0.375 -0.34375 -1.078125q0 -0.4375 0.140625 -0.765625q0.15625 -0.34375 0.453125 -0.515625q0.3125 -0.171875 0.671875 -0.171875q0.453125 0 0.734375 0.234375q0.28125 0.21875 0.375 0.640625l-0.46875 0.078125q-0.0625 -0.28125 -0.234375 -0.421875q-0.15625 -0.140625 -0.390625 -0.140625q-0.359375 0 -0.578125 0.25q-0.21875 0.25 -0.21875 0.796875q0 0.5625 0.203125 0.8125q0.21875 0.25 0.5625 0.25q0.28125 0 0.46875 -0.15625q0.1875 -0.171875 0.234375 -0.53125zm0.6796875 -0.359375q0 -0.78125 0.4375 -1.140625q0.34375 -0.3125 0.859375 -0.3125q0.578125 0 0.9375 0.375q0.359375 0.375 0.359375 1.03125q0 0.53125 -0.15625 0.84375q-0.15625 0.296875 -0.46875 0.46875q-0.3125 0.171875 -0.671875 0.171875q-0.578125 0 -0.9375 -0.375q-0.359375 -0.375 -0.359375 -1.0625zm0.484375 0q0 0.53125 0.234375 0.796875q0.234375 0.25 0.578125 0.25q0.359375 0 0.578125 -0.265625q0.234375 -0.265625 0.234375 -0.796875q0 -0.515625 -0.234375 -0.78125q-0.234375 -0.265625 -0.578125 -0.265625q-0.34375 0 -0.578125 0.265625q-0.234375 0.265625 -0.234375 0.796875zm2.6507568 1.375l0 -2.765625l0.421875 0l0 0.390625q0.3125 -0.453125 0.890625 -0.453125q0.25 0 0.453125 0.09375q0.21875 0.09375 0.3125 0.234375q0.109375 0.140625 0.15625 0.34375q0.015625 0.125 0.015625 0.453125l0 1.703125l-0.46875 0l0 -1.6875q0 -0.28125 -0.0625 -0.421875q-0.046875 -0.140625 -0.1875 -0.21875q-0.140625 -0.09375 -0.328125 -0.09375q-0.296875 0 -0.515625 0.1875q-0.21875 0.1875 -0.21875 0.71875l0 1.515625l-0.46875 0zm4.760132 0l0 -0.34375q-0.265625 0.40625 -0.765625 0.40625q-0.328125 0 -0.609375 -0.171875q-0.28125 -0.1875 -0.4375 -0.515625q-0.140625 -0.328125 -0.140625 -0.75q0 -0.421875 0.125 -0.75q0.140625 -0.34375 0.421875 -0.515625q0.28125 -0.1875 0.609375 -0.1875q0.25 0 0.4375 0.109375q0.203125 0.109375 0.328125 0.265625l0 -1.359375l0.46875 0l0 3.8125l-0.4375 0zm-1.484375 -1.375q0 0.53125 0.21875 0.796875q0.234375 0.25 0.546875 0.25q0.296875 0 0.515625 -0.25q0.21875 -0.25 0.21875 -0.765625q0 -0.5625 -0.21875 -0.828125q-0.21875 -0.265625 -0.546875 -0.265625q-0.3125 0 -0.53125 0.265625q-0.203125 0.25 -0.203125 0.796875zm2.5257568 -1.9375l0 -0.546875l0.515625 0l0 0.4375q0 0.34375 -0.09375 0.5q-0.109375 0.21875 -0.34375 0.3125l-0.109375 -0.171875q0.140625 -0.0625 0.203125 -0.1875q0.078125 -0.125 0.078125 -0.34375l-0.25 0zm0.8125 0l0 -0.546875l0.5 0l0 0.4375q0 0.34375 -0.078125 0.5q-0.109375 0.21875 -0.34375 0.3125l-0.125 -0.171875q0.140625 -0.0625 0.203125 -0.1875q0.078125 -0.125 0.09375 -0.34375l-0.25 0z" fill-rule="nonzero"/><path fill="#cfe2f3" d="m159.753 132.75143l0 0c0 -1.7946472 1.4548492 -3.2494812 3.2494812 -3.2494812l57.555984 0c0.8618164 0 1.688324 0.3423462 2.2977295 0.9517517c0.60939026 0.60939026 0.9517517 1.4359131 0.9517517 2.2977295l0 12.997528c0 1.794632 -1.4548492 3.2494812 -3.2494812 3.2494812l-57.555984 0c-1.794632 0 -3.2494812 -1.4548492 -3.2494812 -3.2494812z" fill-rule="evenodd"/><path stroke="#000000" stroke-width="1.0" stroke-linejoin="round" stroke-linecap="butt" d="m159.753 132.75143l0 0c0 -1.7946472 1.4548492 -3.2494812 3.2494812 -3.2494812l57.555984 0c0.8618164 0 1.688324 0.3423462 2.2977295 0.9517517c0.60939026 0.60939026 0.9517517 1.4359131 0.9517517 2.2977295l0 12.997528c0 1.794632 -1.4548492 3.2494812 -3.2494812 3.2494812l-57.555984 0c-1.794632 0 -3.2494812 -1.4548492 -3.2494812 -3.2494812z" fill-rule="evenodd"/><path fill="#000000" fill-opacity="0.0" d="m159.753 129.50195l64.05495 0l0 19.49649l-64.05495 0z" fill-rule="evenodd"/><path fill="#000000" d="m181.92671 136.62195l0 -3.171875l-1.140625 0l0 -0.640625l3.03125 0l0 0.640625l-1.125 0l0 3.171875l-0.765625 0zm3.9890137 -0.875l0.71875 0.125q-0.125 0.390625 -0.4375 0.609375q-0.296875 0.203125 -0.75 0.203125q-0.734375 0 -1.078125 -0.46875q-0.265625 -0.375 -0.265625 -0.953125q0 -0.6875 0.359375 -1.078125q0.359375 -0.390625 0.90625 -0.390625q0.609375 0 0.96875 0.40625q0.359375 0.40625 0.34375 1.25l-1.828125 0q0 0.328125 0.171875 0.515625q0.171875 0.171875 0.421875 0.171875q0.171875 0 0.28125 -0.09375q0.125 -0.09375 0.1875 -0.296875zm0.046875 -0.75q-0.015625 -0.3125 -0.171875 -0.46875q-0.15625 -0.171875 -0.375 -0.171875q-0.25 0 -0.40625 0.171875q-0.15625 0.171875 -0.140625 0.46875l1.09375 0zm2.0101318 1.625l-0.734375 0l0 -2.765625l0.6875 0l0 0.390625q0.171875 -0.28125 0.3125 -0.359375q0.140625 -0.09375 0.3125 -0.09375q0.25 0 0.484375 0.140625l-0.21875 0.640625q-0.1875 -0.125 -0.34375 -0.125q-0.15625 0 -0.265625 0.09375q-0.109375 0.078125 -0.171875 0.296875q-0.0625 0.21875 -0.0625 0.921875l0 0.859375zm1.3235016 -2.765625l0.671875 0l0 0.375q0.359375 -0.4375 0.859375 -0.4375q0.265625 0 0.453125 0.109375q0.203125 0.109375 0.328125 0.328125q0.18751526 -0.21875 0.39064026 -0.328125q0.21875 -0.109375 0.453125 -0.109375q0.3125 0 0.515625 0.125q0.21875 0.125 0.3125 0.359375q0.078125 0.1875 0.078125 0.578125l0 1.765625l-0.734375 0l0 -1.578125q0 -0.40625 -0.078125 -0.53125q-0.09375 -0.15625 -0.3125 -0.15625q-0.140625 0 -0.28125 0.09375q-0.140625 0.09375 -0.20314026 0.28125q-0.046875 0.171875 -0.046875 0.5625l0 1.328125l-0.734375 0l0 -1.515625q0 -0.40625 -0.046875 -0.515625q-0.03125 -0.125 -0.125 -0.171875q-0.078125 -0.0625 -0.21875 -0.0625q-0.15625 0 -0.296875 0.09375q-0.140625 0.09375 -0.203125 0.265625q-0.046875 0.171875 -0.046875 0.5625l0 1.34375l-0.734375 0l0 -2.765625zm4.7844543 -0.375l0 -0.671875l0.734375 0l0 0.671875l-0.734375 0zm0 3.140625l0 -2.765625l0.734375 0l0 2.765625l-0.734375 0zm3.9959564 0l-0.71875 0l0 -1.40625q0 -0.453125 -0.046875 -0.578125q-0.046875 -0.140625 -0.15625 -0.203125q-0.109375 -0.078125 -0.25 -0.078125q-0.203125 0 -0.359375 0.109375q-0.140625 0.09375 -0.203125 0.265625q-0.046875 0.171875 -0.046875 0.640625l0 1.25l-0.734375 0l0 -2.765625l0.6875 0l0 0.40625q0.359375 -0.46875 0.90625 -0.46875q0.234375 0 0.4375 0.09375q0.203125 0.078125 0.296875 0.21875q0.109375 0.140625 0.140625 0.3125q0.046875 0.171875 0.046875 0.484375l0 1.71875zm1.2858887 -1.921875l-0.65625 -0.125q0.109375 -0.390625 0.375 -0.578125q0.28125 -0.203125 0.828125 -0.203125q0.484375 0 0.71875 0.125q0.25 0.109375 0.34375 0.296875q0.09375 0.171875 0.09375 0.640625l0 0.859375q0 0.359375 0.03125 0.53125q0.03125 0.171875 0.125 0.375l-0.71875 0q-0.03125 -0.078125 -0.078125 -0.21875q-0.015625 -0.0625 -0.015625 -0.078125q-0.1875 0.171875 -0.40625 0.265625q-0.21875 0.09375 -0.453125 0.09375q-0.421875 0 -0.671875 -0.234375q-0.25 -0.234375 -0.25 -0.578125q0 -0.234375 0.109375 -0.421875q0.109375 -0.1875 0.3125 -0.28125q0.203125 -0.09375 0.59375 -0.171875q0.5 -0.09375 0.703125 -0.171875l0 -0.078125q0 -0.21875 -0.109375 -0.296875q-0.09375 -0.09375 -0.390625 -0.09375q-0.1875 0 -0.296875 0.078125q-0.109375 0.078125 -0.1875 0.265625zm0.984375 0.59375q-0.140625 0.046875 -0.453125 0.109375q-0.296875 0.0625 -0.390625 0.125q-0.140625 0.109375 -0.140625 0.265625q0 0.15625 0.109375 0.265625q0.125 0.109375 0.296875 0.109375q0.203125 0 0.375 -0.125q0.140625 -0.109375 0.171875 -0.25q0.03125 -0.09375 0.03125 -0.359375l0 -0.140625zm1.4320068 1.328125l0 -3.8125l0.734375 0l0 3.8125l-0.734375 0z" fill-rule="nonzero"/><path fill="#000000" d="m189.24329 143.45007l0 0.546875l-0.5 0l0 -0.4375q0 -0.34375 0.078125 -0.5q0.109375 -0.203125 0.34375 -0.3125l0.125 0.171875q-0.15625 0.0625 -0.21875 0.1875q-0.0625 0.109375 -0.078125 0.34375l0.25 0zm0.8125 0l0 0.546875l-0.515625 0l0 -0.4375q0 -0.34375 0.09375 -0.5q0.109375 -0.203125 0.34375 -0.3125l0.109375 0.171875q-0.140625 0.0625 -0.21875 0.1875q-0.0625 0.109375 -0.0625 0.34375l0.25 0zm2.9305725 2.71875l0 0.453125l-2.5312653 0q0 -0.171875 0.0625 -0.328125q0.09375 -0.25 0.296875 -0.5q0.21875 -0.25 0.625 -0.578125q0.62501526 -0.515625 0.84376526 -0.8125q0.21875 -0.296875 0.21875 -0.5625q0 -0.28125 -0.203125 -0.46875q-0.203125 -0.1875 -0.515625 -0.1875q-0.34376526 0 -0.54689026 0.203125q-0.203125 0.203125 -0.203125 0.5625l-0.484375 -0.046875q0.046875 -0.546875 0.359375 -0.828125q0.328125 -0.28125 0.87501526 -0.28125q0.546875 0 0.859375 0.3125q0.328125 0.296875 0.328125 0.75q0 0.21875 -0.09375 0.453125q-0.09375 0.21875 -0.3125 0.46875q-0.203125 0.234375 -0.71875 0.65625q-0.42189026 0.359375 -0.54689026 0.484375q-0.109375 0.125 -0.1875 0.25l1.8750153 0zm0.49450684 -2.859375l0 -0.546875l0.515625 0l0 0.4375q0 0.34375 -0.09375 0.5q-0.109375 0.21875 -0.34375 0.3125l-0.109375 -0.171875q0.140625 -0.0625 0.203125 -0.1875q0.078125 -0.125 0.078125 -0.34375l-0.25 0zm0.8125 0l0 -0.546875l0.5 0l0 0.4375q0 0.34375 -0.078125 0.5q-0.109375 0.21875 -0.34375 0.3125l-0.125 -0.171875q0.140625 -0.0625 0.203125 -0.1875q0.078125 -0.125 0.09375 -0.34375l-0.25 0z" fill-rule="nonzero"/></g></svg>