<svg xmlns="http://www.w3.org/2000/svg" xmlns:xlink="http://www.w3.org/1999/xlink" width="100.0" height="100.0" viewBox="-4.4168556 53.1328434 0.032821199999999884 0.013960199999999645" preserveAspectRatio="xMinYMin meet"><g transform="matrix(1,0,0,-1,0,106.279647)"><g><polyline fill="none" stroke="#66cc99" stroke-width="0.0006564239999999977" points="-4.388303,53.143488 -4.389386,53.143656 -4.38952,53.143629 -4.38955,53.143622 -4.389685,53.143634 -4.389697,53.14364 -4.38983,53.143652 -4.389847,53.143654 -4.389971,53.143688 -4.389984,53.143693 -4.390117,53.143721 -4.390132,53.143723 -4.390257,53.143759 -4.390274,53.143762 -4.390409,53.14375 -4.390425,53.143748 -4.390562,53.143766 -4.390578,53.143771 -4.390709,53.143752 -4.390724,53.143747 -4.390861,53.143735 -4.390878,53.143733 -4.391017,53.143737 -4.391034,53.143741 -4.39116,53.143777 -4.391174,53.143782 -4.391293,53.143828 -4.391304,53.143836 -4.391419,53.143885 -4.391435,53.143888 -4.391541,53.143941 -4.391553,53.143943 -4.39168,53.14394 -4.391702,53.14394 -4.391838,53.143926 -4.391857,53.143922 -4.391889,53.144005 -4.391883,53.144013 -4.391857,53.144098 -4.391855,53.144107 -4.391971,53.144149 -4.39199,53.144153 -4.39213,53.144179 -4.392148,53.144181 -4.392285,53.144192 -4.392305,53.144195 -4.392437,53.144222 -4.392453,53.144227 -4.392579,53.144265 -4.392593,53.144268 -4.39273,53.14428 -4.392742,53.144284 -4.39288,53.14431 -4.392898,53.144312 -4.39303,53.144331 -4.393047,53.144335 -4.393173,53.144369 -4.393192,53.144374 -4.393328,53.144402 -4.393347,53.144406 -4.393474,53.14444 -4.393494,53.144445 -4.393627,53.14447 -4.393647,53.144473 -4.393784,53.144491 -4.393803,53.144494 -4.39394,53.144525 -4.393957,53.144529 -4.394085,53.144551 -4.394104,53.144553 -4.394235,53.144557 -4.394255,53.144556 -4.39436,53.144533 -4.394398,53.144522 -4.394514,53.144498 -4.39455,53.144493 -4.394694,53.144472 -4.39471,53.144468 -4.394847,53.144444 -4.394865,53.144443 -4.395008,53.144456 -4.395024,53.144458 -4.395166,53.144483 -4.395183,53.144484 -4.395325,53.144473 -4.395343,53.144472 -4.39548,53.144476 -4.395498,53.144477 -4.395636,53.144495 -4.395652,53.144499 -4.395792,53.144518 -4.395805,53.14452 -4.395947,53.144531 -4.395962,53.144534 -4.396104,53.14455 -4.396122,53.144552 -4.396257,53.14456 -4.396275,53.14456 -4.396409,53.144563 -4.396425,53.144566 -4.396557,53.144591 -4.396571,53.144594 -4.396706,53.144602 -4.396722,53.144605 -4.396864,53.144605 -4.396872,53.144607 -4.397011,53.144622 -4.39703,53.144623 -4.397167,53.14462 -4.397184,53.144621 -4.397328,53.144634 -4.397347,53.144635 -4.397491,53.144653 -4.397508,53.144655 -4.397648,53.144671 -4.397666,53.144673 -4.397803,53.144705 -4.397816,53.144706 -4.397959,53.144722 -4.397973,53.144726 -4.398107,53.14472 -4.398123,53.144721 -4.39827,53.14471 -4.398289,53.144709 -4.398434,53.144705 -4.398445,53.144705 -4.398565,53.144653 -4.39858,53.144652 -4.398719,53.144657 -4.398736,53.144661 -4.398866,53.144681 -4.398884,53.144682 -4.399023,53.144698 -4.39904,53.1447 -4.39917,53.144718 -4.399189,53.14472 -4.399328,53.14474 -4.399341,53.144744 -4.399462,53.144789 -4.399484,53.14479 -4.399626,53.144797 -4.399645,53.144798 -4.399793,53.1448 -4.399808,53.1448 -4.399956,53.144793 -4.399972,53.144793 -4.400117,53.144796 -4.400135,53.144796 -4.400282,53.144809 -4.400306,53.144813 -4.400438,53.144821 -4.400457,53.144822 -4.400605,53.144829 -4.400622,53.144829 -4.400763,53.144829 -4.400783,53.144828 -4.400908,53.144825 -4.400932,53.144823 -4.401079,53.144818 -4.401095,53.144817 -4.401239,53.144812 -4.401252,53.144808 -4.401394,53.144789 -4.401413,53.144786 -4.401545,53.144762 -4.401562,53.144762 -4.401702,53.144763 -4.401717,53.144762 -4.401851,53.144754 -4.401869,53.144753 -4.402001,53.14474 -4.402021,53.14474 -4.402163,53.14474 -4.402176,53.144743 -4.402316,53.144743 -4.402335,53.144741 -4.402464,53.144725 -4.402482,53.144724 -4.402625,53.144711 -4.402643,53.14471 -4.402791,53.144702 -4.402808,53.144702 -4.402943,53.14469 -4.40296,53.144687 -4.403094,53.144661 -4.403113,53.144659 -4.403246,53.144639 -4.403265,53.144637 -4.403408,53.144622 -4.403423,53.14462 -4.403563,53.1446 -4.403581,53.144597 -4.403721,53.144578 -4.403739,53.144575 -4.403869,53.144552 -4.403888,53.144548 -4.404024,53.144514 -4.404041,53.144509 -4.404166,53.144477 -4.404183,53.144473 -4.40432,53.144439 -4.404337,53.144435 -4.404455,53.144396 -4.404474,53.144392 -4.404599,53.144352 -4.404617,53.144344 -4.404733,53.1443 -4.404747,53.144295 -4.404861,53.144241 -4.404878,53.144236 -4.405014,53.144214 -4.40503,53.144211 -4.405142,53.14416 -4.405155,53.144152 -4.405254,53.144086 -4.405265,53.144079 -4.405378,53.14402 -4.405391,53.144014 -4.405494,53.143952 -4.405505,53.143946 -4.405606,53.143889 -4.405621,53.143884 -4.405735,53.143835 -4.405749,53.143831 -4.40586,53.143782 -4.405874,53.143776 -4.406,53.143729 -4.406009,53.14372 -4.406112,53.143663 -4.406125,53.143656 -4.406235,53.143601 -4.406245,53.143593 -4.406341,53.143535 -4.406356,53.14353 -4.406474,53.143484 -4.406487,53.143478 -4.40658,53.143421 -4.406593,53.143414 -4.406697,53.143364 -4.40671,53.143357 -4.406821,53.143304 -4.406834,53.143296 -4.406924,53.143239 -4.406938,53.143231 -4.407031,53.143161 -4.407041,53.14315 -4.407108,53.143079 -4.407113,53.14307 -4.407194,53.142997 -4.407206,53.142989 -4.407292,53.142924 -4.407298,53.142915 -4.407356,53.142836 -4.407361,53.142826 -4.407405,53.14274 -4.407411,53.142731 -4.407439,53.14268 -4.407443,53.142637 -4.40743,53.142556 -4.407431,53.142547 -4.407466,53.142467 -4.407472,53.14246 -4.407538,53.142384 -4.407549,53.142376 -4.407606,53.142301 -4.407617,53.142294 -4.407625,53.142207 -4.407623,53.142196 -4.407589,53.142109 -4.407584,53.142097 -4.407564,53.14201 -4.407559,53.141999 -4.40755,53.141914 -4.407548,53.141902 -4.407514,53.141816 -4.407508,53.141805 -4.407476,53.141724 -4.407468,53.141714 -4.407432,53.141635 -4.407428,53.141625 -4.407391,53.14154 -4.40739,53.141529 -4.407372,53.141443 -4.407373,53.141433 -4.407371,53.141351 -4.407364,53.141341 -4.407386,53.141254 -4.407393,53.141243 -4.407417,53.141163 -4.40742,53.141151 -4.40744,53.141066 -4.407436,53.141056 -4.407461,53.140979 -4.407462,53.140966 -4.407368,53.140903 -4.407355,53.140894 -4.407279,53.140821 -4.407269,53.140811 -4.407181,53.14074 -4.407166,53.140732 -4.407097,53.140664 -4.407085,53.140655 -4.406976,53.140611 -4.406959,53.140603 -4.406866,53.140542 -4.406857,53.14053 -4.406823,53.140452 -4.406821,53.140442 -4.406947,53.140406 -4.406963,53.140405 -4.407098,53.140414 -4.407114,53.140414 -4.407259,53.140418 -4.407275,53.140417 -4.407399,53.140379 -4.407408,53.140375 -4.407512,53.140316 -4.407519,53.140309 -4.40765,53.14028 -4.407663,53.140274 -4.407729,53.140203 -4.407734,53.140192 -4.407755,53.140113 -4.407754,53.1401 -4.407729,53.140013 -4.407721,53.140001 -4.407731,53.139915 -4.407733,53.139903 -4.407796,53.139829 -4.407801,53.139817 -4.407853,53.139733 -4.407862,53.139722 -4.407918,53.13965 -4.407926,53.139638 -4.407992,53.139571 -4.408003,53.13956 -4.408076,53.139487 -4.408088,53.139477 -4.408136,53.139403 -4.408138,53.139391 -4.408115,53.13931 -4.408109,53.139298 -4.408072,53.13922 -4.40807,53.139209 -4.408063,53.139124 -4.408067,53.139114 -4.408102,53.139032 -4.408105,53.139021 -4.408147,53.138938 -4.408159,53.138928 -4.40822,53.138859 -4.40823,53.138848 -4.408311,53.138782 -4.408331,53.138781 -4.408452,53.138749 -4.408469,53.138743 -4.408603,53.138729 -4.408622,53.138729 -4.408751,53.138708 -4.408767,53.138704 -4.408911,53.138689 -4.408929,53.138692 -4.409054,53.138722 -4.40907,53.138727 -4.409184,53.138775 -4.409199,53.13878 -4.409333,53.138781 -4.40935,53.138779 -4.409484,53.138801 -4.4095,53.138809 -4.409564,53.138877 -4.409569,53.138888 -4.409669,53.138951 -4.409687,53.138952 -4.409831,53.138956 -4.409848,53.138956 -4.409985,53.13894 -4.410001,53.138937 -4.410131,53.138894 -4.410142,53.138891 -4.410264,53.13884 -4.410278,53.138839 -4.410421,53.138826 -4.41043,53.138821 -4.410508,53.138751 -4.410519,53.138741 -4.410552,53.138666 -4.410552,53.138653 -4.410578,53.138564 -4.410577,53.138554 -4.410597,53.138469 -4.410604,53.138459 -4.410732,53.138413 -4.410738,53.138413 -4.410865,53.138384 -4.410876,53.138377 -4.410983,53.138331 -4.411,53.138325 -4.411127,53.138292 -4.411147,53.13829 -4.41127,53.138247 -4.411284,53.138241 -4.411384,53.138178 -4.41139,53.138171 -4.411487,53.138111 -4.4115,53.138103 -4.411584,53.138034 -4.4116,53.138028 -4.411713,53.137969 -4.411729,53.13796 -4.411803,53.137891 -4.411803,53.13788 -4.411835,53.137793 -4.411835,53.137781 -4.411914,53.137715 -4.411928,53.137707 -4.412028,53.137654 -4.412039,53.137646 -4.412095,53.13757 -4.4121,53.137559 -4.412145,53.137477 -4.412152,53.137467 -4.412039,53.13741 -4.412022,53.13741 -4.411901,53.13736 -4.411889,53.137352 -4.411909,53.137272 -4.411913,53.137261 -4.4119,53.137175 -4.411897,53.137165 -4.411831,53.137089 -4.411819,53.137081 -4.411679,53.137054 -4.411663,53.137057 -4.411529,53.137063 -4.411508,53.137062 -4.411368,53.137031 -4.411355,53.137023 -4.41133,53.136938 -4.411334,53.136928 -4.41137,53.136843 -4.411374,53.136833 -4.41141,53.136752 -4.411416,53.136744 -4.411493,53.136679 -4.411502,53.136669 -4.411562,53.136588 -4.41157,53.136579 -4.411624,53.136502 -4.411636,53.136495 -4.411738,53.136431 -4.41175,53.136423 -4.411842,53.136356 -4.41185,53.136346 -4.411892,53.136269 -4.411898,53.136259 -4.411969,53.136185 -4.411977,53.136176 -4.412074,53.136109 -4.412086,53.136102 -4.412218,53.136065 -4.412233,53.136059 -4.412364,53.13603 -4.412381,53.136027 -4.412521,53.136012 -4.412538,53.136011 -4.412681,53.136009 -4.4127,53.136008 -4.41283,53.135984 -4.412845,53.135978 -4.412965,53.135928 -4.412978,53.135921 -4.4131,53.135874 -4.413113,53.135872 -4.413232,53.13583 -4.413245,53.135823 -4.41333,53.135755 -4.413336,53.135747 -4.413435,53.13568 -4.413442,53.135679 -4.413577,53.135653 -4.413589,53.135649 -4.413727,53.135615 -4.413739,53.135613 -4.413885,53.135619 -4.413893,53.135615 -4.413823,53.135539 -4.413815,53.135526 -4.413809,53.135442 -4.413816,53.13543 -4.41389,53.135364 -4.413899,53.135354 -4.41393,53.135274 -4.413934,53.135261 -4.41402,53.135194 -4.414029,53.135185 -4.414071,53.135102 -4.414071,53.135091 -4.414088,53.135003 -4.414082,53.134996 -4.414037,53.134919 -4.414032,53.134909 -4.413992,53.134829 -4.413984,53.13482 -4.413901,53.134747 -4.413901,53.134738 -4.413805,53.134676 -4.413792,53.134671 -4.413664,53.134633 -4.413645,53.134629 -4.413521,53.134596 -4.413504,53.134591 -4.41338,53.134545 -4.41337,53.134548 -4.413233,53.134512 -4.413231,53.134511 -4.413113,53.134468 -4.413102,53.134463 -4.413059,53.134379 -4.413067,53.134372 -4.413112,53.134286 -4.413112,53.134285 -4.413172,53.134209 -4.413182,53.134199 -4.41326,53.134131 -4.413268,53.134124 -4.413372,53.134059 -4.413373,53.134059 -4.413326,53.134122 -4.413301,53.134138 -4.413219,53.134204 -4.413212,53.134212 -4.413094,53.134247 -4.413076,53.134251 -4.412938,53.134279 -4.412931,53.134288 -4.412839,53.134348 -4.412831,53.134356 -4.412785,53.13443 -4.412776,53.134442 -4.412741,53.134525 -4.412739,53.134536 -4.412868,53.134496 -4.412896,53.134479 -4.413008,53.134425 -4.413025,53.134419 -4.413102,53.134494 -4.413111,53.134495 -4.413234,53.134527 -4.413249,53.134532 -4.413384,53.134557 -4.413394,53.134557 -4.413529,53.134582 -4.413543,53.134585 -4.413667,53.134624 -4.41368,53.134629 -4.413771,53.134695 -4.413784,53.134699 -4.413879,53.134766 -4.413884,53.134773 -4.413983,53.134834 -4.413992,53.134842 -4.414023,53.134929 -4.414027,53.134939 -4.414097,53.135014 -4.414099,53.135024 -4.414063,53.135104 -4.414061,53.135115 -4.414044,53.135195 -4.414042,53.135204 -4.414076,53.135281 -4.41408,53.135293 -4.414205,53.135339 -4.414228,53.135334 -4.414367,53.135318 -4.414385,53.135317 -4.41453,53.135328 -4.414542,53.13533 -4.414667,53.13536 -4.414681,53.135365 -4.41482,53.135369 -4.414835,53.135374 -4.414963,53.135334 -4.414979,53.135325 -4.415068,53.135263 -4.415074,53.135255 -4.415187,53.135312 -4.415191,53.135313 -4.415066,53.135273 -4.415038,53.135248 -4.414937,53.135188 -4.414926,53.135187 -4.414959,53.135261 -4.41496,53.135275 -4.414954,53.135359 -4.414951,53.135371 -4.414993,53.135451 -4.415007,53.135457 -4.415104,53.135523 -4.415108,53.135531 -4.415104,53.13562 -4.415098,53.135636 -4.415098,53.135716 -4.415099,53.135731 -4.415243,53.135715 -4.415247,53.135703 -4.415273,53.135624 -4.415278,53.13561 -4.41531,53.135524 -4.415315,53.135514 -4.415387,53.135441 -4.415393,53.135433 -4.415466,53.135355 -4.415473,53.135346 -4.415573,53.135291 -4.415589,53.135283 -4.415632,53.135197 -4.41564,53.135195 -4.415532,53.13525 -4.415527,53.135254 -4.415515,53.135342 -4.415512,53.135347 -4.415446,53.135422 -4.415436,53.135431 -4.415354,53.1355 -4.41535,53.135509 -4.415297,53.135592 -4.415294,53.135601 -4.415265,53.135688 -4.415265,53.135698 -4.415211,53.135777 -4.415202,53.135784 -4.415083,53.135824 -4.415071,53.13583 -4.41499,53.135894 -4.41498,53.135903 -4.414904,53.135968 -4.414893,53.135979 -4.414808,53.136044 -4.414796,53.136051 -4.414734,53.136126 -4.414729,53.136137 -4.414693,53.136215 -4.414688,53.136224 -4.4147,53.136312 -4.414707,53.136319 -4.414724,53.136406 -4.414719,53.136414 -4.414635,53.13648 -4.414624,53.136486 -4.414542,53.13656 -4.414537,53.13657 -4.414517,53.136655 -4.414518,53.136665 -4.414547,53.13675 -4.41455,53.13676 -4.414562,53.136848 -4.414557,53.136859 -4.414498,53.136931 -4.414488,53.136941 -4.414418,53.137015 -4.414408,53.137027 -4.414347,53.137105 -4.414339,53.137114 -4.414285,53.137188 -4.414274,53.137198 -4.414176,53.137256 -4.414161,53.137263 -4.414074,53.137328 -4.414063,53.137336 -4.413978,53.137404 -4.413967,53.137412 -4.413881,53.137483 -4.41387,53.137492 -4.41379,53.137567 -4.413778,53.137577 -4.413672,53.137638 -4.413658,53.137646 -4.413544,53.137701 -4.413529,53.137707 -4.413421,53.137767 -4.413418,53.137777 -4.413377,53.137858 -4.41337,53.137865 -4.413316,53.137941 -4.413311,53.13795 -4.413274,53.13803 -4.413266,53.138041 -4.413213,53.138123 -4.413208,53.138135 -4.41317,53.13822 -4.413162,53.138229 -4.413109,53.138309 -4.413101,53.13832 -4.413043,53.138397 -4.413029,53.138408 -4.412942,53.13848 -4.41294,53.138491 -4.412925,53.138575 -4.412918,53.138586 -4.412852,53.138657 -4.412848,53.138668 -4.412829,53.138752 -4.412828,53.138764 -4.412774,53.13884 -4.412765,53.138849 -4.412713,53.138932 -4.412708,53.138944 -4.412669,53.13903 -4.412666,53.139041 -4.412606,53.139122 -4.412595,53.13913 -4.41252,53.1392 -4.412509,53.139209 -4.412399,53.139257 -4.412384,53.139262 -4.412275,53.139312 -4.412259,53.139316 -4.412147,53.139366 -4.412135,53.139373 -4.411998,53.139395 -4.411978,53.139399 -4.411842,53.139435 -4.411826,53.139439 -4.411701,53.139483 -4.411685,53.139488 -4.411555,53.139527 -4.411537,53.139536 -4.411408,53.13958 -4.411391,53.139583 -4.411251,53.139603 -4.411234,53.139607 -4.41116,53.139677 -4.411164,53.13969 -4.411099,53.139764 -4.411085,53.139772 -4.411002,53.139842 -4.410996,53.13985 -4.410947,53.139933 -4.410943,53.139942 -4.410918,53.140028 -4.410914,53.140039 -4.410797,53.140087 -4.410785,53.14009 -4.410699,53.140158 -4.410684,53.140172 -4.410615,53.14024 -4.410603,53.14025 -4.410534,53.140323 -4.410519,53.140335 -4.410462,53.14041 -4.410459,53.140422 -4.410452,53.140508 -4.410451,53.140519 -4.410457,53.140608 -4.410451,53.140618 -4.410386,53.140691 -4.410372,53.140699 -4.410277,53.140757 -4.410266,53.140764 -4.410181,53.140827 -4.410177,53.140837 -4.410139,53.140923 -4.410127,53.140933 -4.410049,53.141003 -4.410037,53.141012 -4.410031,53.141091 -4.410025,53.141102 -4.409995,53.141188 -4.409995,53.141197 -4.409906,53.141266 -4.409897,53.141274 -4.409828,53.14135 -4.409814,53.141357 -4.409709,53.141412 -4.409691,53.141418 -4.409582,53.141469 -4.409569,53.141476 -4.409523,53.141556 -4.409521,53.141565 -4.409471,53.141642 -4.409456,53.141647 -4.409474,53.141731 -4.409469,53.141739 -4.409428,53.141821 -4.40942,53.141833 -4.409369,53.141913 -4.409366,53.141924 -4.409299,53.141996 -4.409285,53.142001 -4.409191,53.142067 -4.409184,53.142076 -4.409171,53.142164 -4.409172,53.142173 -4.409245,53.142247 -4.409252,53.142257 -4.409182,53.142329 -4.409179,53.142339 -4.409131,53.14242 -4.409124,53.142427 -4.409044,53.142499 -4.409042,53.142509 -4.408943,53.14257 -4.408928,53.142576 -4.408828,53.14264 -4.408815,53.142647 -4.408725,53.142717 -4.408717,53.142727 -4.408657,53.142807 -4.408653,53.142817 -4.408625,53.142901 -4.408618,53.14291 -4.408527,53.14298 -4.408512,53.142986 -4.408415,53.143053 -4.408415,53.143062 -4.408365,53.143146 -4.40835,53.143153 -4.408298,53.143228 -4.408292,53.143236 -4.408167,53.14328 -4.408156,53.143288 -4.408035,53.14334 -4.408024,53.143348 -4.407936,53.143411 -4.407924,53.143416 -4.407795,53.143456 -4.407785,53.143461 -4.407656,53.1435 -4.407645,53.143504 -4.407509,53.143504 -4.407495,53.143505 -4.407359,53.143541 -4.407339,53.143546 -4.407226,53.143586 -4.407207,53.143591 -4.407115,53.143652 -4.40711,53.14366 -4.407043,53.14374 -4.407032,53.143745 -4.406936,53.143804 -4.406921,53.143807 -4.407053,53.143792 -4.407065,53.143783 -4.407098,53.143703 -4.407097,53.143693 -4.407107,53.143605 -4.407092,53.143603 -4.40695,53.14358 -4.406928,53.143577 -4.406789,53.143587 -4.406775,53.143596 -4.406911,53.14359 -4.406929,53.14359 -4.407075,53.143599 -4.407091,53.143602 -4.407058,53.143685 -4.407048,53.143689 -4.406974,53.143761 -4.406961,53.143768 -4.406838,53.143804 -4.406824,53.143809 -4.406701,53.143846 -4.406685,53.143849 -4.406588,53.143909 -4.406576,53.143917 -4.406471,53.143978 -4.406463,53.143981 -4.406386,53.144048 -4.406378,53.144057 -4.406306,53.144114 -4.406282,53.144132 -4.406187,53.144194 -4.406174,53.144199 -4.406055,53.144244 -4.406046,53.144252 -4.405938,53.144303 -4.405924,53.14431 -4.405806,53.14435 -4.405789,53.144356 -4.405672,53.144403 -4.405659,53.144412 -4.405576,53.144476 -4.405567,53.144487 -4.405499,53.144565 -4.405487,53.144571 -4.405354,53.144605 -4.405341,53.14461 -4.40524,53.144659 -4.405229,53.14467 -4.405139,53.144733 -4.405121,53.144739 -4.405004,53.144787 -4.404988,53.144796 -4.404876,53.144849 -4.404861,53.144853 -4.404739,53.144905 -4.404729,53.144914 -4.404635,53.144972 -4.404623,53.144983 -4.404513,53.144932 -4.404495,53.144925 -4.404389,53.14497 -4.404374,53.144985 -4.404272,53.145038 -4.404256,53.145041 -4.404117,53.145059 -4.404101,53.145067 -4.403963,53.145086 -4.403953,53.145092 -4.404072,53.145142 -4.404087,53.145142 -4.403946,53.145151 -4.403929,53.145155 -4.403844,53.145216 -4.403837,53.145226 -4.403731,53.145282 -4.403713,53.145281 -4.403571,53.145263 -4.403554,53.145265 -4.403427,53.145295 -4.403406,53.145298 -4.403281,53.145332 -4.403263,53.145337 -4.403158,53.14539 -4.403147,53.145394 -4.403029,53.145436 -4.403013,53.145435 -4.402881,53.145472 -4.40287,53.145475 -4.402752,53.145522 -4.402737,53.14552 -4.402604,53.145496 -4.402588,53.145494 -4.402459,53.145463 -4.402441,53.145457 -4.402305,53.145493 -4.402289,53.145498 -4.402149,53.145526 -4.402132,53.145528 -4.401991,53.145536 -4.401977,53.145539 -4.401851,53.14558 -4.401836,53.14558 -4.401688,53.145567 -4.401671,53.145567 -4.401532,53.145556 -4.401519,53.145552 -4.401379,53.145524 -4.401362,53.145525 -4.40123,53.14554 -4.401214,53.145546 -4.401066,53.145552 -4.401063,53.145548 -4.40093,53.145586 -4.400919,53.145588 -4.400781,53.145573 -4.40077,53.14557 -4.400629,53.145563 -4.400615,53.145565 -4.400469,53.145578 -4.40045,53.145572 -4.400324,53.145523 -4.400326,53.145521 -4.400193,53.145522 -4.400172,53.145525 -4.400032,53.145556 -4.400021,53.145559 -4.399896,53.145539 -4.399874,53.145536 -4.399742,53.145519 -4.39972,53.145516 -4.399589,53.145523 -4.39957,53.145522 -4.399428,53.145529 -4.399412,53.145525 -4.399284,53.145497 -4.399266,53.145496 -4.399124,53.145512 -4.399107,53.145514 -4.398974,53.145522 -4.398957,53.145523 -4.398809,53.14552 -4.398793,53.145515 -4.398648,53.145492 -4.39864,53.145487 -4.398512,53.145465 -4.398495,53.145462 -4.398353,53.145449 -4.398337,53.14545 -4.398204,53.145465 -4.398179,53.145458 -4.398045,53.145435 -4.398029,53.145435 -4.39789,53.145433 -4.397872,53.145429 -4.397736,53.145442 -4.397722,53.145437 -4.397585,53.14542 -4.397572,53.145421 -4.397424,53.145414 -4.397411,53.145411 -4.397273,53.145419 -4.397257,53.145417 -4.397118,53.145385 -4.397108,53.145376 -4.397004,53.145323 -4.396985,53.145318 -4.396839,53.145311 -4.396825,53.145308 -4.396688,53.145284 -4.39668,53.145279 -4.396533,53.14526 -4.396516,53.145258 -4.396376,53.145243 -4.396357,53.145242 -4.396214,53.145235 -4.3962,53.145236 -4.396065,53.145215 -4.396051,53.145214 -4.395906,53.145207 -4.395898,53.14521 -4.395771,53.145198 -4.39575,53.145193 -4.395619,53.145179 -4.3956,53.145173 -4.395476,53.145145 -4.395457,53.145143 -4.395322,53.145115 -4.395305,53.145112 -4.395173,53.145071 -4.395156,53.14507 -4.395018,53.145039 -4.395005,53.145039 -4.394872,53.145038 -4.394854,53.145037 -4.394735,53.144985 -4.394722,53.144981 -4.394579,53.144955 -4.394562,53.144957 -4.39443,53.144988 -4.394423,53.144995 -4.394305,53.144947 -4.394298,53.144941 -4.394167,53.144904 -4.394154,53.144903 -4.394017,53.144876 -4.394001,53.144871 -4.393861,53.144841 -4.393842,53.144838 -4.393694,53.144829 -4.393674,53.144826 -4.393542,53.144792 -4.393525,53.144788 -4.393383,53.144764 -4.393368,53.144761 -4.393222,53.144741 -4.393206,53.144738 -4.393065,53.144729 -4.393049,53.144727 -4.392911,53.144718 -4.3929,53.144718 -4.39276,53.14469 -4.392748,53.144685 -4.392607,53.144676 -4.392596,53.144674 -4.392465,53.144648 -4.392449,53.144647 -4.392301,53.144638 -4.392285,53.144634 -4.392144,53.14461 -4.392128,53.144606 -4.391989,53.144582 -4.391976,53.14458 -4.391832,53.144557 -4.39182,53.144553 -4.391672,53.144565 -4.391664,53.144563 -4.391528,53.144525 -4.391513,53.144523 -4.391376,53.144504 -4.39136,53.1445 -4.391251,53.144463 -4.391228,53.144456 -4.391087,53.144435 -4.391072,53.144433 -4.390948,53.144392 -4.390932,53.144387 -4.390814,53.144332 -4.390797,53.144328 -4.390665,53.144292 -4.39065,53.144286 -4.390521,53.144255 -4.390504,53.144252 -4.390373,53.14423 -4.390356,53.144227 -4.390216,53.144195 -4.390201,53.144193 -4.390065,53.144163 -4.390044,53.144159 -4.389909,53.144133 -4.389893,53.144129 -4.389753,53.144097 -4.389735,53.144097 -4.389613,53.144072 -4.389592,53.144066 -4.389449,53.144054 -4.389432,53.144052 -4.389296,53.144025 -4.389279,53.144024 -4.38914,53.144027 -4.389124,53.144026 -4.388998,53.143983 -4.388982,53.143978 -4.38886,53.143941 -4.388847,53.143936 -4.388727,53.143894 -4.388715,53.14389 -4.38859,53.143861 -4.388574,53.143855 -4.388447,53.143814 -4.388431,53.143809 -4.388303,53.143768 -4.388287,53.143764 -4.388159,53.143725 -4.388143,53.143721 -4.388009,53.143686 -4.38799,53.143681 -4.387866,53.14364 -4.387848,53.143635 -4.387719,53.143598 -4.387703,53.143595 -4.387573,53.143551 -4.387555,53.143545 -4.387432,53.143498 -4.387416,53.14349 -4.387296,53.143536 -4.387289,53.143545 -4.387241,53.143624 -4.387229,53.143627 -4.387107,53.143582 -4.387094,53.143576 -4.387015,53.14365 -4.387019,53.143655 -4.387,53.143728 -4.386964,53.14375 -4.386888,53.143822 -4.386881,53.143829 -4.386765,53.143881 -4.386755,53.143887 -4.386664,53.143942 -4.386654,53.143953 -4.386563,53.14399 -4.38654,53.144014 -4.386474,53.144085 -4.386457,53.144092 -4.386339,53.144122 -4.386307,53.144113 -4.386184,53.144149 -4.386163,53.144149 -4.386035,53.144132 -4.386014,53.14413 -4.385885,53.144085 -4.385875,53.144081 -4.385793,53.144014 -4.385785,53.144007 -4.385642,53.143993 -4.385616,53.143988 -4.385493,53.143947 -4.385482,53.143943 -4.385367,53.143885 -4.385353,53.143878 -4.38525,53.143865" opacity="0.8" /></g></g></svg>